<mxfile host="app.diagrams.net" modified="2022-11-23T12:48:02.467Z" agent="5.0 (Windows NT 10.0; Win64; x64) AppleWebKit/537.36 (KHTML, like Gecko) Chrome/107.0.0.0 Safari/537.36 Edg/107.0.1418.26" etag="CTQvBd9Hc-AuLhBNKKKx" version="20.5.3" type="github" pages="3">
  <diagram id="kgpKYQtTHZ0yAKxKKP6v" name="Maker Patient Event Flow N1">
    <mxGraphModel dx="2865" dy="1122" grid="1" gridSize="10" guides="1" tooltips="1" connect="1" arrows="1" fold="1" page="1" pageScale="1" pageWidth="850" pageHeight="1100" math="0" shadow="0">
      <root>
        <mxCell id="0" />
        <mxCell id="1" parent="0" />
        <mxCell id="S0YPraR0rsfA_K75OKo1-1" value="" style="edgeStyle=orthogonalEdgeStyle;rounded=0;html=1;jettySize=auto;orthogonalLoop=1;plain-blue;endArrow=none;endFill=0;strokeWidth=4;strokeColor=#000000;startArrow=none;" parent="1" source="S0YPraR0rsfA_K75OKo1-51" edge="1">
          <mxGeometry x="172.25" y="211" as="geometry">
            <mxPoint x="1030" y="211" as="targetPoint" />
          </mxGeometry>
        </mxCell>
        <mxCell id="S0YPraR0rsfA_K75OKo1-2" style="edgeStyle=orthogonalEdgeStyle;curved=1;rounded=0;html=1;exitX=1;exitY=0.5;exitPerimeter=0;entryX=0;entryY=0.5;entryPerimeter=0;endArrow=none;endFill=0;jettySize=auto;orthogonalLoop=1;strokeWidth=4;fontSize=15;" parent="1" source="S0YPraR0rsfA_K75OKo1-4" target="S0YPraR0rsfA_K75OKo1-8" edge="1">
          <mxGeometry relative="1" as="geometry" />
        </mxCell>
        <mxCell id="S0YPraR0rsfA_K75OKo1-3" value="create system (system type))" style="edgeLabel;html=1;align=center;verticalAlign=middle;resizable=0;points=[];" parent="S0YPraR0rsfA_K75OKo1-2" vertex="1" connectable="0">
          <mxGeometry x="-0.157" y="1" relative="1" as="geometry">
            <mxPoint y="7" as="offset" />
          </mxGeometry>
        </mxCell>
        <mxCell id="S0YPraR0rsfA_K75OKo1-4" value="" style="verticalLabelPosition=bottom;verticalAlign=top;html=1;strokeWidth=4;shape=mxgraph.flowchart.on-page_reference;fillColor=#ffe6cc;strokeColor=#d79b00;" parent="1" vertex="1">
          <mxGeometry x="142.25" y="196" width="30" height="30" as="geometry" />
        </mxCell>
        <mxCell id="S0YPraR0rsfA_K75OKo1-5" value="" style="edgeStyle=orthogonalEdgeStyle;rounded=0;html=1;jettySize=auto;orthogonalLoop=1;strokeWidth=4;endArrow=none;endFill=0;" parent="1" target="S0YPraR0rsfA_K75OKo1-4" edge="1">
          <mxGeometry x="72.25" y="211" as="geometry">
            <mxPoint x="30" y="211" as="sourcePoint" />
          </mxGeometry>
        </mxCell>
        <mxCell id="S0YPraR0rsfA_K75OKo1-6" value="maker_patient" style="text;html=1;strokeColor=none;fillColor=none;align=center;verticalAlign=middle;whiteSpace=wrap;overflow=hidden;fontSize=14;fontStyle=1;fontFamily=Courier New;" parent="1" vertex="1">
          <mxGeometry x="-100" y="190" width="120" height="42" as="geometry" />
        </mxCell>
        <mxCell id="S0YPraR0rsfA_K75OKo1-7" style="edgeStyle=orthogonalEdgeStyle;curved=1;rounded=0;html=1;exitX=1;exitY=0.5;exitPerimeter=0;endArrow=none;endFill=0;jettySize=auto;orthogonalLoop=1;strokeWidth=4;fontSize=15;" parent="1" source="S0YPraR0rsfA_K75OKo1-8" target="S0YPraR0rsfA_K75OKo1-10" edge="1">
          <mxGeometry relative="1" as="geometry" />
        </mxCell>
        <mxCell id="S0YPraR0rsfA_K75OKo1-8" value="" style="verticalLabelPosition=bottom;verticalAlign=top;html=1;strokeWidth=4;shape=mxgraph.flowchart.on-page_reference;strokeColor=#666666;fillColor=#f5f5f5;fontColor=#333333;" parent="1" vertex="1">
          <mxGeometry x="219.75" y="281" width="30" height="30" as="geometry" />
        </mxCell>
        <mxCell id="S0YPraR0rsfA_K75OKo1-9" style="edgeStyle=orthogonalEdgeStyle;curved=1;rounded=0;html=1;exitX=1;exitY=0.5;exitPerimeter=0;entryX=0;entryY=0.5;entryPerimeter=0;endArrow=none;endFill=0;jettySize=auto;orthogonalLoop=1;strokeWidth=4;fontSize=15;" parent="1" source="S0YPraR0rsfA_K75OKo1-10" target="S0YPraR0rsfA_K75OKo1-39" edge="1">
          <mxGeometry relative="1" as="geometry" />
        </mxCell>
        <mxCell id="S0YPraR0rsfA_K75OKo1-10" value="" style="verticalLabelPosition=bottom;verticalAlign=top;html=1;strokeWidth=4;shape=mxgraph.flowchart.on-page_reference;strokeColor=#666666;fillColor=#f5f5f5;fontColor=#333333;" parent="1" vertex="1">
          <mxGeometry x="370" y="281" width="30" height="30" as="geometry" />
        </mxCell>
        <mxCell id="S0YPraR0rsfA_K75OKo1-11" value="maker-biosystem" style="text;html=1;strokeColor=none;fillColor=none;align=left;verticalAlign=middle;whiteSpace=wrap;overflow=hidden;fontSize=14;fontStyle=1;fontFamily=Courier New;" parent="1" vertex="1">
          <mxGeometry x="-100" y="281" width="240" height="20" as="geometry" />
        </mxCell>
        <mxCell id="S0YPraR0rsfA_K75OKo1-12" value="" style="edgeStyle=orthogonalEdgeStyle;rounded=0;orthogonalLoop=1;jettySize=auto;html=1;endArrow=none;endFill=0;strokeWidth=4;" parent="1" source="S0YPraR0rsfA_K75OKo1-17" target="S0YPraR0rsfA_K75OKo1-19" edge="1">
          <mxGeometry relative="1" as="geometry" />
        </mxCell>
        <mxCell id="S0YPraR0rsfA_K75OKo1-13" style="edgeStyle=orthogonalEdgeStyle;rounded=0;orthogonalLoop=1;jettySize=auto;html=1;entryX=1;entryY=0.5;entryDx=0;entryDy=0;entryPerimeter=0;endArrow=none;endFill=0;strokeWidth=4;curved=1;" parent="1" source="S0YPraR0rsfA_K75OKo1-17" target="S0YPraR0rsfA_K75OKo1-8" edge="1">
          <mxGeometry relative="1" as="geometry">
            <Array as="points">
              <mxPoint x="280" y="376" />
              <mxPoint x="280" y="296" />
            </Array>
          </mxGeometry>
        </mxCell>
        <mxCell id="S0YPraR0rsfA_K75OKo1-14" value="create organ (type)" style="edgeLabel;html=1;align=center;verticalAlign=middle;resizable=0;points=[];" parent="S0YPraR0rsfA_K75OKo1-13" vertex="1" connectable="0">
          <mxGeometry x="0.2113" y="1" relative="1" as="geometry">
            <mxPoint y="5" as="offset" />
          </mxGeometry>
        </mxCell>
        <mxCell id="S0YPraR0rsfA_K75OKo1-15" style="edgeStyle=orthogonalEdgeStyle;curved=1;rounded=0;orthogonalLoop=1;jettySize=auto;html=1;exitX=1;exitY=0.5;exitDx=0;exitDy=0;exitPerimeter=0;entryX=0;entryY=0.5;entryDx=0;entryDy=0;entryPerimeter=0;endArrow=none;endFill=0;strokeWidth=4;fontFamily=Courier New;fontColor=#009900;" parent="1" source="S0YPraR0rsfA_K75OKo1-17" target="S0YPraR0rsfA_K75OKo1-29" edge="1">
          <mxGeometry relative="1" as="geometry" />
        </mxCell>
        <mxCell id="S0YPraR0rsfA_K75OKo1-16" value="create cell (type)" style="edgeLabel;html=1;align=center;verticalAlign=middle;resizable=0;points=[];" parent="S0YPraR0rsfA_K75OKo1-15" vertex="1" connectable="0">
          <mxGeometry x="-0.1458" y="-3" relative="1" as="geometry">
            <mxPoint as="offset" />
          </mxGeometry>
        </mxCell>
        <mxCell id="S0YPraR0rsfA_K75OKo1-17" value="" style="verticalLabelPosition=bottom;verticalAlign=top;html=1;strokeWidth=4;shape=mxgraph.flowchart.on-page_reference;strokeColor=#d6b656;fillColor=#fff2cc;" parent="1" vertex="1">
          <mxGeometry x="320" y="361" width="30" height="30" as="geometry" />
        </mxCell>
        <mxCell id="S0YPraR0rsfA_K75OKo1-18" value="" style="edgeStyle=orthogonalEdgeStyle;curved=1;rounded=0;orthogonalLoop=1;jettySize=auto;html=1;endArrow=none;endFill=0;strokeWidth=4;" parent="1" source="S0YPraR0rsfA_K75OKo1-19" target="S0YPraR0rsfA_K75OKo1-21" edge="1">
          <mxGeometry relative="1" as="geometry" />
        </mxCell>
        <mxCell id="S0YPraR0rsfA_K75OKo1-19" value="" style="verticalLabelPosition=bottom;verticalAlign=top;html=1;strokeWidth=4;shape=mxgraph.flowchart.on-page_reference;strokeColor=#d6b656;fillColor=#fff2cc;" parent="1" vertex="1">
          <mxGeometry x="470" y="361" width="30" height="30" as="geometry" />
        </mxCell>
        <mxCell id="S0YPraR0rsfA_K75OKo1-20" value="" style="edgeStyle=orthogonalEdgeStyle;curved=1;rounded=0;orthogonalLoop=1;jettySize=auto;html=1;endArrow=none;endFill=0;strokeWidth=4;fontFamily=Courier New;fontColor=#009900;" parent="1" source="S0YPraR0rsfA_K75OKo1-21" target="S0YPraR0rsfA_K75OKo1-24" edge="1">
          <mxGeometry relative="1" as="geometry" />
        </mxCell>
        <mxCell id="S0YPraR0rsfA_K75OKo1-21" value="" style="verticalLabelPosition=bottom;verticalAlign=top;html=1;strokeWidth=4;shape=mxgraph.flowchart.on-page_reference;strokeColor=#d6b656;fillColor=#fff2cc;" parent="1" vertex="1">
          <mxGeometry x="620" y="361" width="30" height="30" as="geometry" />
        </mxCell>
        <mxCell id="S0YPraR0rsfA_K75OKo1-22" style="edgeStyle=orthogonalEdgeStyle;curved=1;rounded=0;orthogonalLoop=1;jettySize=auto;html=1;entryX=0;entryY=0.5;entryDx=0;entryDy=0;entryPerimeter=0;endArrow=none;endFill=0;strokeWidth=4;fontFamily=Courier New;fontColor=#009900;" parent="1" source="S0YPraR0rsfA_K75OKo1-24" target="S0YPraR0rsfA_K75OKo1-60" edge="1">
          <mxGeometry relative="1" as="geometry">
            <mxPoint x="904.5" y="326" as="targetPoint" />
          </mxGeometry>
        </mxCell>
        <mxCell id="S0YPraR0rsfA_K75OKo1-23" value="*" style="edgeLabel;html=1;align=center;verticalAlign=middle;resizable=0;points=[];fontSize=29;" parent="S0YPraR0rsfA_K75OKo1-22" vertex="1" connectable="0">
          <mxGeometry x="-0.7882" y="6" relative="1" as="geometry">
            <mxPoint x="-7" y="6" as="offset" />
          </mxGeometry>
        </mxCell>
        <mxCell id="S0YPraR0rsfA_K75OKo1-24" value="" style="verticalLabelPosition=bottom;verticalAlign=top;html=1;strokeWidth=4;shape=mxgraph.flowchart.on-page_reference;strokeColor=#d6b656;fillColor=#fff2cc;" parent="1" vertex="1">
          <mxGeometry x="750" y="361" width="30" height="30" as="geometry" />
        </mxCell>
        <mxCell id="S0YPraR0rsfA_K75OKo1-25" value="maker-organs" style="text;html=1;strokeColor=none;fillColor=none;align=left;verticalAlign=middle;whiteSpace=wrap;overflow=hidden;fontSize=14;fontStyle=1;fontFamily=Courier New;" parent="1" vertex="1">
          <mxGeometry x="-99.5" y="361" width="112.25" height="20" as="geometry" />
        </mxCell>
        <mxCell id="S0YPraR0rsfA_K75OKo1-26" value="" style="edgeStyle=orthogonalEdgeStyle;rounded=0;orthogonalLoop=1;jettySize=auto;html=1;endArrow=none;endFill=0;strokeWidth=4;" parent="1" source="S0YPraR0rsfA_K75OKo1-29" target="S0YPraR0rsfA_K75OKo1-33" edge="1">
          <mxGeometry relative="1" as="geometry">
            <Array as="points">
              <mxPoint x="580" y="455" />
              <mxPoint x="580" y="455" />
            </Array>
          </mxGeometry>
        </mxCell>
        <mxCell id="S0YPraR0rsfA_K75OKo1-27" value="*" style="edgeLabel;html=1;align=center;verticalAlign=middle;resizable=0;points=[];fontSize=29;" parent="S0YPraR0rsfA_K75OKo1-26" vertex="1" connectable="0">
          <mxGeometry x="-0.2296" relative="1" as="geometry">
            <mxPoint as="offset" />
          </mxGeometry>
        </mxCell>
        <mxCell id="S0YPraR0rsfA_K75OKo1-28" value="create" style="edgeStyle=orthogonalEdgeStyle;rounded=0;orthogonalLoop=1;jettySize=auto;html=1;dashed=1;" parent="1" source="S0YPraR0rsfA_K75OKo1-29" target="S0YPraR0rsfA_K75OKo1-47" edge="1">
          <mxGeometry relative="1" as="geometry" />
        </mxCell>
        <mxCell id="S0YPraR0rsfA_K75OKo1-29" value="" style="verticalLabelPosition=bottom;verticalAlign=top;html=1;strokeWidth=4;shape=mxgraph.flowchart.on-page_reference;strokeColor=#6c8ebf;fillColor=#dae8fc;" parent="1" vertex="1">
          <mxGeometry x="415" y="440" width="30" height="30" as="geometry" />
        </mxCell>
        <mxCell id="S0YPraR0rsfA_K75OKo1-30" style="edgeStyle=orthogonalEdgeStyle;curved=1;rounded=0;orthogonalLoop=1;jettySize=auto;html=1;exitX=1;exitY=0.5;exitDx=0;exitDy=0;exitPerimeter=0;entryX=0;entryY=0.5;entryDx=0;entryDy=0;entryPerimeter=0;endArrow=none;endFill=0;strokeWidth=4;fontFamily=Courier New;fontColor=#009900;" parent="1" source="S0YPraR0rsfA_K75OKo1-33" target="S0YPraR0rsfA_K75OKo1-24" edge="1">
          <mxGeometry relative="1" as="geometry">
            <Array as="points">
              <mxPoint x="710" y="455" />
              <mxPoint x="710" y="376" />
            </Array>
          </mxGeometry>
        </mxCell>
        <mxCell id="S0YPraR0rsfA_K75OKo1-31" value="*" style="edgeLabel;html=1;align=center;verticalAlign=middle;resizable=0;points=[];fontSize=29;" parent="S0YPraR0rsfA_K75OKo1-30" vertex="1" connectable="0">
          <mxGeometry x="-0.7352" relative="1" as="geometry">
            <mxPoint x="-9" as="offset" />
          </mxGeometry>
        </mxCell>
        <mxCell id="S0YPraR0rsfA_K75OKo1-32" value="create" style="edgeStyle=orthogonalEdgeStyle;rounded=0;orthogonalLoop=1;jettySize=auto;html=1;dashed=1;" parent="1" source="S0YPraR0rsfA_K75OKo1-33" target="S0YPraR0rsfA_K75OKo1-48" edge="1">
          <mxGeometry relative="1" as="geometry" />
        </mxCell>
        <mxCell id="S0YPraR0rsfA_K75OKo1-33" value="" style="verticalLabelPosition=bottom;verticalAlign=top;html=1;strokeWidth=4;shape=mxgraph.flowchart.on-page_reference;strokeColor=#6c8ebf;fillColor=#dae8fc;" parent="1" vertex="1">
          <mxGeometry x="580" y="440" width="30" height="30" as="geometry" />
        </mxCell>
        <mxCell id="S0YPraR0rsfA_K75OKo1-34" value="maker-biocells" style="text;html=1;strokeColor=none;fillColor=none;align=left;verticalAlign=middle;whiteSpace=wrap;overflow=hidden;fontSize=14;fontStyle=1;fontFamily=Courier New;" parent="1" vertex="1">
          <mxGeometry x="-100" y="445" width="240" height="20" as="geometry" />
        </mxCell>
        <mxCell id="S0YPraR0rsfA_K75OKo1-35" style="edgeStyle=orthogonalEdgeStyle;curved=1;rounded=0;orthogonalLoop=1;jettySize=auto;html=1;endArrow=none;endFill=0;strokeWidth=4;fontFamily=Courier New;fontColor=#009900;startArrow=none;entryX=0;entryY=0.5;entryDx=0;entryDy=0;entryPerimeter=0;" parent="1" source="S0YPraR0rsfA_K75OKo1-60" target="S0YPraR0rsfA_K75OKo1-51" edge="1">
          <mxGeometry relative="1" as="geometry">
            <mxPoint x="660" y="296" as="sourcePoint" />
            <mxPoint x="980" y="280" as="targetPoint" />
          </mxGeometry>
        </mxCell>
        <mxCell id="S0YPraR0rsfA_K75OKo1-36" value="*" style="edgeLabel;html=1;align=center;verticalAlign=middle;resizable=0;points=[];fontSize=29;" parent="S0YPraR0rsfA_K75OKo1-35" vertex="1" connectable="0">
          <mxGeometry x="-0.4194" y="9" relative="1" as="geometry">
            <mxPoint as="offset" />
          </mxGeometry>
        </mxCell>
        <mxCell id="S0YPraR0rsfA_K75OKo1-37" style="edgeStyle=orthogonalEdgeStyle;curved=1;rounded=0;html=1;exitX=1;exitY=0.5;exitPerimeter=0;entryX=0;entryY=0.5;entryPerimeter=0;endArrow=none;endFill=0;jettySize=auto;orthogonalLoop=1;strokeWidth=4;fontSize=15;exitDx=0;exitDy=0;entryDx=0;entryDy=0;" parent="1" source="S0YPraR0rsfA_K75OKo1-53" target="S0YPraR0rsfA_K75OKo1-10" edge="1">
          <mxGeometry relative="1" as="geometry">
            <mxPoint x="182.25" y="221" as="sourcePoint" />
            <mxPoint x="229.75" y="306" as="targetPoint" />
            <Array as="points">
              <mxPoint x="340" y="211" />
              <mxPoint x="340" y="296" />
            </Array>
          </mxGeometry>
        </mxCell>
        <mxCell id="S0YPraR0rsfA_K75OKo1-38" value="create system (system type))" style="edgeLabel;html=1;align=center;verticalAlign=middle;resizable=0;points=[];" parent="S0YPraR0rsfA_K75OKo1-37" vertex="1" connectable="0">
          <mxGeometry x="-0.157" y="1" relative="1" as="geometry">
            <mxPoint x="19" y="2" as="offset" />
          </mxGeometry>
        </mxCell>
        <mxCell id="S0YPraR0rsfA_K75OKo1-39" value="" style="verticalLabelPosition=bottom;verticalAlign=top;html=1;strokeWidth=4;shape=mxgraph.flowchart.on-page_reference;strokeColor=#666666;fillColor=#f5f5f5;fontColor=#333333;" parent="1" vertex="1">
          <mxGeometry x="550" y="281" width="30" height="30" as="geometry" />
        </mxCell>
        <mxCell id="S0YPraR0rsfA_K75OKo1-40" value="BD" style="text;html=1;strokeColor=none;fillColor=none;align=left;verticalAlign=middle;whiteSpace=wrap;overflow=hidden;fontSize=14;fontStyle=1;fontFamily=Courier New;" parent="1" vertex="1">
          <mxGeometry x="-97.75" y="523" width="240" height="20" as="geometry" />
        </mxCell>
        <mxCell id="S0YPraR0rsfA_K75OKo1-41" style="edgeStyle=orthogonalEdgeStyle;rounded=0;orthogonalLoop=1;jettySize=auto;html=1;entryX=1;entryY=0.5;entryDx=0;entryDy=0;entryPerimeter=0;endArrow=none;endFill=0;strokeWidth=4;curved=1;exitX=0;exitY=0.5;exitDx=0;exitDy=0;exitPerimeter=0;" parent="1" source="S0YPraR0rsfA_K75OKo1-19" target="S0YPraR0rsfA_K75OKo1-10" edge="1">
          <mxGeometry relative="1" as="geometry">
            <mxPoint x="590" y="320" as="sourcePoint" />
            <mxPoint x="519.75" y="306" as="targetPoint" />
            <Array as="points">
              <mxPoint x="440" y="376" />
              <mxPoint x="440" y="296" />
            </Array>
          </mxGeometry>
        </mxCell>
        <mxCell id="S0YPraR0rsfA_K75OKo1-42" value="create organ (type)" style="edgeLabel;html=1;align=center;verticalAlign=middle;resizable=0;points=[];" parent="S0YPraR0rsfA_K75OKo1-41" vertex="1" connectable="0">
          <mxGeometry x="0.1429" y="3" relative="1" as="geometry">
            <mxPoint y="10" as="offset" />
          </mxGeometry>
        </mxCell>
        <mxCell id="S0YPraR0rsfA_K75OKo1-43" style="edgeStyle=orthogonalEdgeStyle;curved=1;rounded=0;orthogonalLoop=1;jettySize=auto;html=1;exitX=1;exitY=0.5;exitDx=0;exitDy=0;exitPerimeter=0;entryX=0;entryY=0.5;entryDx=0;entryDy=0;entryPerimeter=0;endArrow=none;endFill=0;strokeWidth=4;fontFamily=Courier New;fontColor=#009900;" parent="1" source="S0YPraR0rsfA_K75OKo1-19" target="S0YPraR0rsfA_K75OKo1-33" edge="1">
          <mxGeometry relative="1" as="geometry">
            <mxPoint x="360" y="386" as="sourcePoint" />
            <mxPoint x="425" y="465" as="targetPoint" />
          </mxGeometry>
        </mxCell>
        <mxCell id="S0YPraR0rsfA_K75OKo1-44" value="create cell (type)" style="edgeLabel;html=1;align=center;verticalAlign=middle;resizable=0;points=[];" parent="S0YPraR0rsfA_K75OKo1-43" vertex="1" connectable="0">
          <mxGeometry x="-0.1458" y="-3" relative="1" as="geometry">
            <mxPoint as="offset" />
          </mxGeometry>
        </mxCell>
        <mxCell id="S0YPraR0rsfA_K75OKo1-45" style="edgeStyle=orthogonalEdgeStyle;rounded=0;orthogonalLoop=1;jettySize=auto;html=1;entryX=1;entryY=0.5;entryDx=0;entryDy=0;entryPerimeter=0;endArrow=none;endFill=0;strokeWidth=4;curved=1;exitX=0;exitY=0.5;exitDx=0;exitDy=0;exitPerimeter=0;" parent="1" source="S0YPraR0rsfA_K75OKo1-21" target="S0YPraR0rsfA_K75OKo1-39" edge="1">
          <mxGeometry relative="1" as="geometry">
            <mxPoint x="480" y="386" as="sourcePoint" />
            <mxPoint x="410" y="306" as="targetPoint" />
            <Array as="points">
              <mxPoint x="590" y="376" />
              <mxPoint x="590" y="296" />
            </Array>
          </mxGeometry>
        </mxCell>
        <mxCell id="S0YPraR0rsfA_K75OKo1-46" value="create organ (type)" style="edgeLabel;html=1;align=center;verticalAlign=middle;resizable=0;points=[];" parent="S0YPraR0rsfA_K75OKo1-45" vertex="1" connectable="0">
          <mxGeometry x="0.1429" y="3" relative="1" as="geometry">
            <mxPoint y="-7" as="offset" />
          </mxGeometry>
        </mxCell>
        <mxCell id="S0YPraR0rsfA_K75OKo1-47" value="" style="verticalLabelPosition=bottom;verticalAlign=top;html=1;strokeWidth=4;shape=mxgraph.flowchart.on-page_reference;strokeColor=#9673a6;fillColor=#e1d5e7;" parent="1" vertex="1">
          <mxGeometry x="415" y="526" width="30" height="30" as="geometry" />
        </mxCell>
        <mxCell id="S0YPraR0rsfA_K75OKo1-48" value="" style="verticalLabelPosition=bottom;verticalAlign=top;html=1;strokeWidth=4;shape=mxgraph.flowchart.on-page_reference;strokeColor=#9673a6;fillColor=#e1d5e7;" parent="1" vertex="1">
          <mxGeometry x="580" y="526" width="30" height="30" as="geometry" />
        </mxCell>
        <mxCell id="S0YPraR0rsfA_K75OKo1-49" value="" style="edgeStyle=orthogonalEdgeStyle;rounded=0;orthogonalLoop=1;jettySize=auto;html=1;endArrow=none;endFill=0;strokeWidth=4;exitX=1;exitY=0.5;exitDx=0;exitDy=0;exitPerimeter=0;entryX=0;entryY=0.5;entryDx=0;entryDy=0;entryPerimeter=0;" parent="1" source="S0YPraR0rsfA_K75OKo1-47" target="S0YPraR0rsfA_K75OKo1-48" edge="1">
          <mxGeometry relative="1" as="geometry">
            <mxPoint x="455" y="441" as="sourcePoint" />
            <mxPoint x="590" y="441" as="targetPoint" />
            <Array as="points">
              <mxPoint x="510" y="541" />
              <mxPoint x="510" y="541" />
            </Array>
          </mxGeometry>
        </mxCell>
        <mxCell id="S0YPraR0rsfA_K75OKo1-50" value="Event Driven Maker Patient" style="text;html=1;strokeColor=#666666;fillColor=#f5f5f5;align=center;verticalAlign=middle;whiteSpace=wrap;rounded=0;fontStyle=1;fontSize=29;fontColor=#333333;" parent="1" vertex="1">
          <mxGeometry x="-97.75" y="70" width="490" height="60" as="geometry" />
        </mxCell>
        <mxCell id="S0YPraR0rsfA_K75OKo1-51" value="" style="verticalLabelPosition=bottom;verticalAlign=top;html=1;strokeWidth=4;shape=mxgraph.flowchart.on-page_reference;strokeColor=#d79b00;fillColor=#ffe6cc;" parent="1" vertex="1">
          <mxGeometry x="970" y="196" width="30" height="30" as="geometry" />
        </mxCell>
        <mxCell id="S0YPraR0rsfA_K75OKo1-52" value="" style="edgeStyle=orthogonalEdgeStyle;rounded=0;html=1;jettySize=auto;orthogonalLoop=1;plain-blue;endArrow=none;endFill=0;strokeWidth=4;strokeColor=#000000;startArrow=none;" parent="1" source="S0YPraR0rsfA_K75OKo1-56" target="S0YPraR0rsfA_K75OKo1-51" edge="1">
          <mxGeometry x="172.25" y="211" as="geometry">
            <mxPoint x="1030" y="211" as="targetPoint" />
            <mxPoint x="172.25" y="211" as="sourcePoint" />
          </mxGeometry>
        </mxCell>
        <mxCell id="S0YPraR0rsfA_K75OKo1-53" value="" style="verticalLabelPosition=bottom;verticalAlign=top;html=1;strokeWidth=4;shape=mxgraph.flowchart.on-page_reference;fillColor=#ffe6cc;strokeColor=#d79b00;" parent="1" vertex="1">
          <mxGeometry x="290" y="196" width="30" height="30" as="geometry" />
        </mxCell>
        <mxCell id="S0YPraR0rsfA_K75OKo1-54" value="" style="edgeStyle=orthogonalEdgeStyle;rounded=0;html=1;jettySize=auto;orthogonalLoop=1;plain-blue;endArrow=none;endFill=0;strokeWidth=4;strokeColor=#000000;" parent="1" source="S0YPraR0rsfA_K75OKo1-4" target="S0YPraR0rsfA_K75OKo1-53" edge="1">
          <mxGeometry x="172.25" y="211" as="geometry">
            <mxPoint x="870" y="211" as="targetPoint" />
            <mxPoint x="172.25" y="211" as="sourcePoint" />
          </mxGeometry>
        </mxCell>
        <mxCell id="S0YPraR0rsfA_K75OKo1-55" value="*" style="edgeLabel;html=1;align=center;verticalAlign=middle;resizable=0;points=[];fontSize=29;" parent="1" vertex="1" connectable="0">
          <mxGeometry x="670" y="376" as="geometry" />
        </mxCell>
        <mxCell id="S0YPraR0rsfA_K75OKo1-56" value="" style="verticalLabelPosition=bottom;verticalAlign=top;html=1;strokeWidth=4;shape=mxgraph.flowchart.on-page_reference;fillColor=#ffe6cc;strokeColor=#d79b00;" parent="1" vertex="1">
          <mxGeometry x="470" y="196" width="30" height="30" as="geometry" />
        </mxCell>
        <mxCell id="S0YPraR0rsfA_K75OKo1-57" value="" style="edgeStyle=orthogonalEdgeStyle;rounded=0;html=1;jettySize=auto;orthogonalLoop=1;plain-blue;endArrow=none;endFill=0;strokeWidth=4;strokeColor=#000000;startArrow=none;" parent="1" source="S0YPraR0rsfA_K75OKo1-53" target="S0YPraR0rsfA_K75OKo1-56" edge="1">
          <mxGeometry x="172.25" y="211" as="geometry">
            <mxPoint x="870" y="211" as="targetPoint" />
            <mxPoint x="320" y="211" as="sourcePoint" />
          </mxGeometry>
        </mxCell>
        <mxCell id="S0YPraR0rsfA_K75OKo1-58" style="edgeStyle=orthogonalEdgeStyle;curved=1;rounded=0;html=1;endArrow=none;endFill=0;jettySize=auto;orthogonalLoop=1;strokeWidth=4;fontSize=15;entryX=0;entryY=0.5;entryDx=0;entryDy=0;entryPerimeter=0;" parent="1" target="S0YPraR0rsfA_K75OKo1-39" edge="1">
          <mxGeometry relative="1" as="geometry">
            <mxPoint x="500" y="210" as="sourcePoint" />
            <mxPoint x="530" y="295" as="targetPoint" />
            <Array as="points">
              <mxPoint x="520" y="210" />
              <mxPoint x="520" y="295" />
            </Array>
          </mxGeometry>
        </mxCell>
        <mxCell id="S0YPraR0rsfA_K75OKo1-59" value="create system (system type))" style="edgeLabel;html=1;align=center;verticalAlign=middle;resizable=0;points=[];" parent="S0YPraR0rsfA_K75OKo1-58" vertex="1" connectable="0">
          <mxGeometry x="-0.157" y="1" relative="1" as="geometry">
            <mxPoint x="19" y="3" as="offset" />
          </mxGeometry>
        </mxCell>
        <mxCell id="S0YPraR0rsfA_K75OKo1-60" value="" style="verticalLabelPosition=bottom;verticalAlign=top;html=1;strokeWidth=4;shape=mxgraph.flowchart.on-page_reference;strokeColor=#666666;fillColor=#f5f5f5;fontColor=#333333;" parent="1" vertex="1">
          <mxGeometry x="860" y="281" width="30" height="30" as="geometry" />
        </mxCell>
        <mxCell id="S0YPraR0rsfA_K75OKo1-61" value="" style="edgeStyle=orthogonalEdgeStyle;curved=1;rounded=0;orthogonalLoop=1;jettySize=auto;html=1;endArrow=none;endFill=0;strokeWidth=4;fontFamily=Courier New;fontColor=#009900;startArrow=none;" parent="1" source="S0YPraR0rsfA_K75OKo1-39" target="S0YPraR0rsfA_K75OKo1-60" edge="1">
          <mxGeometry relative="1" as="geometry">
            <mxPoint x="580" y="296" as="sourcePoint" />
            <mxPoint x="980" y="280" as="targetPoint" />
          </mxGeometry>
        </mxCell>
        <mxCell id="S0YPraR0rsfA_K75OKo1-62" value="" style="verticalLabelPosition=bottom;verticalAlign=top;html=1;strokeWidth=4;shape=mxgraph.flowchart.on-page_reference;strokeColor=#9673a6;fillColor=#e1d5e7;" parent="1" vertex="1">
          <mxGeometry x="750" y="526" width="30" height="30" as="geometry" />
        </mxCell>
        <mxCell id="S0YPraR0rsfA_K75OKo1-63" value="" style="verticalLabelPosition=bottom;verticalAlign=top;html=1;strokeWidth=4;shape=mxgraph.flowchart.on-page_reference;strokeColor=#9673a6;fillColor=#e1d5e7;" parent="1" vertex="1">
          <mxGeometry x="860" y="526" width="30" height="30" as="geometry" />
        </mxCell>
        <mxCell id="S0YPraR0rsfA_K75OKo1-64" value="" style="edgeStyle=orthogonalEdgeStyle;rounded=0;orthogonalLoop=1;jettySize=auto;html=1;endArrow=none;endFill=0;strokeWidth=4;exitX=1;exitY=0.5;exitDx=0;exitDy=0;exitPerimeter=0;" parent="1" source="S0YPraR0rsfA_K75OKo1-48" edge="1">
          <mxGeometry relative="1" as="geometry">
            <mxPoint x="640" y="540.5" as="sourcePoint" />
            <mxPoint x="750" y="541" as="targetPoint" />
            <Array as="points">
              <mxPoint x="705" y="541" />
            </Array>
          </mxGeometry>
        </mxCell>
        <mxCell id="S0YPraR0rsfA_K75OKo1-65" value="" style="edgeStyle=orthogonalEdgeStyle;rounded=0;orthogonalLoop=1;jettySize=auto;html=1;dashed=1;exitX=0.5;exitY=1;exitDx=0;exitDy=0;exitPerimeter=0;entryX=0.5;entryY=0;entryDx=0;entryDy=0;entryPerimeter=0;" parent="1" source="S0YPraR0rsfA_K75OKo1-24" target="S0YPraR0rsfA_K75OKo1-62" edge="1">
          <mxGeometry relative="1" as="geometry">
            <mxPoint x="605" y="480" as="sourcePoint" />
            <mxPoint x="605" y="560" as="targetPoint" />
          </mxGeometry>
        </mxCell>
        <mxCell id="S0YPraR0rsfA_K75OKo1-66" value="create" style="edgeLabel;html=1;align=center;verticalAlign=middle;resizable=0;points=[];fontSize=11;" parent="S0YPraR0rsfA_K75OKo1-65" vertex="1" connectable="0">
          <mxGeometry x="0.2741" y="-3" relative="1" as="geometry">
            <mxPoint x="3" y="13" as="offset" />
          </mxGeometry>
        </mxCell>
        <mxCell id="S0YPraR0rsfA_K75OKo1-67" value="" style="edgeStyle=orthogonalEdgeStyle;rounded=0;orthogonalLoop=1;jettySize=auto;html=1;endArrow=none;endFill=0;strokeWidth=4;exitX=1;exitY=0.5;exitDx=0;exitDy=0;exitPerimeter=0;entryX=0;entryY=0.5;entryDx=0;entryDy=0;entryPerimeter=0;" parent="1" source="S0YPraR0rsfA_K75OKo1-62" target="S0YPraR0rsfA_K75OKo1-63" edge="1">
          <mxGeometry relative="1" as="geometry">
            <mxPoint x="805" y="566" as="sourcePoint" />
            <mxPoint x="945" y="566" as="targetPoint" />
            <Array as="points">
              <mxPoint x="840" y="541" />
              <mxPoint x="840" y="541" />
            </Array>
          </mxGeometry>
        </mxCell>
        <mxCell id="S0YPraR0rsfA_K75OKo1-68" value="" style="edgeStyle=orthogonalEdgeStyle;rounded=0;orthogonalLoop=1;jettySize=auto;html=1;dashed=1;exitX=0.5;exitY=1;exitDx=0;exitDy=0;exitPerimeter=0;entryX=0.5;entryY=0;entryDx=0;entryDy=0;entryPerimeter=0;" parent="1" source="S0YPraR0rsfA_K75OKo1-60" target="S0YPraR0rsfA_K75OKo1-63" edge="1">
          <mxGeometry relative="1" as="geometry">
            <mxPoint x="874.5" y="340" as="sourcePoint" />
            <mxPoint x="874.5" y="499" as="targetPoint" />
          </mxGeometry>
        </mxCell>
        <mxCell id="S0YPraR0rsfA_K75OKo1-69" value="create" style="edgeLabel;html=1;align=center;verticalAlign=middle;resizable=0;points=[];fontSize=11;" parent="S0YPraR0rsfA_K75OKo1-68" vertex="1" connectable="0">
          <mxGeometry x="-0.2279" relative="1" as="geometry">
            <mxPoint y="96" as="offset" />
          </mxGeometry>
        </mxCell>
        <mxCell id="S0YPraR0rsfA_K75OKo1-70" value="" style="verticalLabelPosition=bottom;verticalAlign=top;html=1;strokeWidth=4;shape=mxgraph.flowchart.on-page_reference;strokeColor=#9673a6;fillColor=#e1d5e7;" parent="1" vertex="1">
          <mxGeometry x="970" y="526" width="30" height="30" as="geometry" />
        </mxCell>
        <mxCell id="S0YPraR0rsfA_K75OKo1-71" value="" style="edgeStyle=orthogonalEdgeStyle;rounded=0;orthogonalLoop=1;jettySize=auto;html=1;endArrow=none;endFill=0;strokeWidth=4;exitX=1;exitY=0.5;exitDx=0;exitDy=0;exitPerimeter=0;entryX=0;entryY=0.5;entryDx=0;entryDy=0;entryPerimeter=0;" parent="1" source="S0YPraR0rsfA_K75OKo1-63" target="S0YPraR0rsfA_K75OKo1-70" edge="1">
          <mxGeometry relative="1" as="geometry">
            <mxPoint x="900" y="540.5" as="sourcePoint" />
            <mxPoint x="1070" y="540.5" as="targetPoint" />
            <Array as="points" />
          </mxGeometry>
        </mxCell>
        <mxCell id="S0YPraR0rsfA_K75OKo1-72" value="" style="edgeStyle=orthogonalEdgeStyle;rounded=0;orthogonalLoop=1;jettySize=auto;html=1;dashed=1;exitX=0.5;exitY=1;exitDx=0;exitDy=0;exitPerimeter=0;entryX=0.5;entryY=0;entryDx=0;entryDy=0;entryPerimeter=0;" parent="1" source="S0YPraR0rsfA_K75OKo1-51" target="S0YPraR0rsfA_K75OKo1-70" edge="1">
          <mxGeometry relative="1" as="geometry">
            <mxPoint x="885" y="321" as="sourcePoint" />
            <mxPoint x="885" y="536" as="targetPoint" />
          </mxGeometry>
        </mxCell>
        <mxCell id="S0YPraR0rsfA_K75OKo1-73" value="create" style="edgeLabel;html=1;align=center;verticalAlign=middle;resizable=0;points=[];fontSize=11;" parent="S0YPraR0rsfA_K75OKo1-72" vertex="1" connectable="0">
          <mxGeometry x="-0.2279" relative="1" as="geometry">
            <mxPoint y="148" as="offset" />
          </mxGeometry>
        </mxCell>
      </root>
    </mxGraphModel>
  </diagram>
  <diagram id="8fnyZX75YwtmgcMZ9Dhm" name="Event Flow Design N2">
    <mxGraphModel dx="2842" dy="1122" grid="1" gridSize="10" guides="1" tooltips="1" connect="1" arrows="1" fold="1" page="1" pageScale="1" pageWidth="827" pageHeight="1169" math="0" shadow="0">
      <root>
        <mxCell id="0" />
        <mxCell id="1" parent="0" />
        <mxCell id="AM82pgl3Qrm1n0prbC0w-1" value="" style="edgeStyle=orthogonalEdgeStyle;rounded=0;html=1;jettySize=auto;orthogonalLoop=1;plain-blue;endArrow=none;endFill=0;strokeWidth=4;strokeColor=#000000;startArrow=none;" parent="1" source="AM82pgl3Qrm1n0prbC0w-51" edge="1">
          <mxGeometry x="767.25" y="221" as="geometry">
            <mxPoint x="1660" y="221" as="targetPoint" />
          </mxGeometry>
        </mxCell>
        <mxCell id="AM82pgl3Qrm1n0prbC0w-2" style="edgeStyle=orthogonalEdgeStyle;curved=1;rounded=0;html=1;exitX=1;exitY=0.5;exitPerimeter=0;entryX=0;entryY=0.5;entryPerimeter=0;endArrow=none;endFill=0;jettySize=auto;orthogonalLoop=1;strokeWidth=4;fontSize=15;" parent="1" source="AM82pgl3Qrm1n0prbC0w-4" target="AM82pgl3Qrm1n0prbC0w-8" edge="1">
          <mxGeometry relative="1" as="geometry" />
        </mxCell>
        <mxCell id="AM82pgl3Qrm1n0prbC0w-3" value="create system (circulatory))" style="edgeLabel;html=1;align=center;verticalAlign=middle;resizable=0;points=[];" parent="AM82pgl3Qrm1n0prbC0w-2" vertex="1" connectable="0">
          <mxGeometry x="-0.157" y="1" relative="1" as="geometry">
            <mxPoint y="7" as="offset" />
          </mxGeometry>
        </mxCell>
        <mxCell id="AM82pgl3Qrm1n0prbC0w-4" value="" style="verticalLabelPosition=bottom;verticalAlign=top;html=1;strokeWidth=4;shape=mxgraph.flowchart.on-page_reference;fillColor=#ffe6cc;strokeColor=#d79b00;" parent="1" vertex="1">
          <mxGeometry x="-47.75" y="206" width="30" height="30" as="geometry" />
        </mxCell>
        <mxCell id="AM82pgl3Qrm1n0prbC0w-5" value="" style="edgeStyle=orthogonalEdgeStyle;rounded=0;html=1;jettySize=auto;orthogonalLoop=1;strokeWidth=4;endArrow=none;endFill=0;" parent="1" target="AM82pgl3Qrm1n0prbC0w-4" edge="1">
          <mxGeometry x="-117.75" y="221" as="geometry">
            <mxPoint x="-160" y="221" as="sourcePoint" />
          </mxGeometry>
        </mxCell>
        <mxCell id="AM82pgl3Qrm1n0prbC0w-6" value="maker_patient" style="text;html=1;strokeColor=none;fillColor=none;align=center;verticalAlign=middle;whiteSpace=wrap;overflow=hidden;fontSize=14;fontStyle=1;fontFamily=Courier New;" parent="1" vertex="1">
          <mxGeometry x="-290" y="200" width="120" height="42" as="geometry" />
        </mxCell>
        <mxCell id="AM82pgl3Qrm1n0prbC0w-7" style="edgeStyle=orthogonalEdgeStyle;curved=1;rounded=0;html=1;exitX=1;exitY=0.5;exitPerimeter=0;endArrow=none;endFill=0;jettySize=auto;orthogonalLoop=1;strokeWidth=4;fontSize=15;" parent="1" source="AM82pgl3Qrm1n0prbC0w-8" target="AM82pgl3Qrm1n0prbC0w-10" edge="1">
          <mxGeometry relative="1" as="geometry" />
        </mxCell>
        <mxCell id="AM82pgl3Qrm1n0prbC0w-8" value="" style="verticalLabelPosition=bottom;verticalAlign=top;html=1;strokeWidth=4;shape=mxgraph.flowchart.on-page_reference;strokeColor=#666666;fillColor=#f5f5f5;fontColor=#333333;" parent="1" vertex="1">
          <mxGeometry x="29.75" y="291" width="30" height="30" as="geometry" />
        </mxCell>
        <mxCell id="AM82pgl3Qrm1n0prbC0w-9" style="edgeStyle=orthogonalEdgeStyle;curved=1;rounded=0;html=1;exitX=1;exitY=0.5;exitPerimeter=0;endArrow=none;endFill=0;jettySize=auto;orthogonalLoop=1;strokeWidth=4;fontSize=15;" parent="1" source="AM82pgl3Qrm1n0prbC0w-10" edge="1">
          <mxGeometry relative="1" as="geometry">
            <mxPoint x="1470" y="306" as="targetPoint" />
          </mxGeometry>
        </mxCell>
        <mxCell id="4ewt5UltZxNOSbqsNuyk-12" value="*" style="edgeLabel;html=1;align=center;verticalAlign=middle;resizable=0;points=[];fontSize=19;" parent="AM82pgl3Qrm1n0prbC0w-9" vertex="1" connectable="0">
          <mxGeometry x="0.7209" y="3" relative="1" as="geometry">
            <mxPoint as="offset" />
          </mxGeometry>
        </mxCell>
        <mxCell id="AM82pgl3Qrm1n0prbC0w-10" value="" style="verticalLabelPosition=bottom;verticalAlign=top;html=1;strokeWidth=4;shape=mxgraph.flowchart.on-page_reference;strokeColor=#666666;fillColor=#f5f5f5;fontColor=#333333;" parent="1" vertex="1">
          <mxGeometry x="1010" y="291" width="30" height="30" as="geometry" />
        </mxCell>
        <mxCell id="AM82pgl3Qrm1n0prbC0w-11" value="maker-biosystem" style="text;html=1;strokeColor=none;fillColor=none;align=left;verticalAlign=middle;whiteSpace=wrap;overflow=hidden;fontSize=14;fontStyle=1;fontFamily=Courier New;" parent="1" vertex="1">
          <mxGeometry x="-290" y="291" width="240" height="20" as="geometry" />
        </mxCell>
        <mxCell id="AM82pgl3Qrm1n0prbC0w-12" value="" style="edgeStyle=orthogonalEdgeStyle;rounded=0;orthogonalLoop=1;jettySize=auto;html=1;endArrow=none;endFill=0;strokeWidth=4;" parent="1" source="AM82pgl3Qrm1n0prbC0w-17" edge="1">
          <mxGeometry relative="1" as="geometry">
            <mxPoint x="1105" y="386" as="targetPoint" />
          </mxGeometry>
        </mxCell>
        <mxCell id="AM82pgl3Qrm1n0prbC0w-13" style="edgeStyle=orthogonalEdgeStyle;rounded=0;orthogonalLoop=1;jettySize=auto;html=1;entryX=1;entryY=0.5;entryDx=0;entryDy=0;entryPerimeter=0;endArrow=none;endFill=0;strokeWidth=4;curved=1;" parent="1" source="AM82pgl3Qrm1n0prbC0w-17" target="AM82pgl3Qrm1n0prbC0w-8" edge="1">
          <mxGeometry relative="1" as="geometry">
            <Array as="points">
              <mxPoint x="90" y="386" />
              <mxPoint x="90" y="306" />
            </Array>
          </mxGeometry>
        </mxCell>
        <mxCell id="AM82pgl3Qrm1n0prbC0w-14" value="create organ (heart)" style="edgeLabel;html=1;align=center;verticalAlign=middle;resizable=0;points=[];" parent="AM82pgl3Qrm1n0prbC0w-13" vertex="1" connectable="0">
          <mxGeometry x="0.2113" y="1" relative="1" as="geometry">
            <mxPoint y="5" as="offset" />
          </mxGeometry>
        </mxCell>
        <mxCell id="AM82pgl3Qrm1n0prbC0w-15" style="edgeStyle=orthogonalEdgeStyle;curved=1;rounded=0;orthogonalLoop=1;jettySize=auto;html=1;exitX=1;exitY=0.5;exitDx=0;exitDy=0;exitPerimeter=0;entryX=0;entryY=0.5;entryDx=0;entryDy=0;entryPerimeter=0;endArrow=none;endFill=0;strokeWidth=4;fontFamily=Courier New;fontColor=#009900;" parent="1" source="AM82pgl3Qrm1n0prbC0w-17" target="AM82pgl3Qrm1n0prbC0w-29" edge="1">
          <mxGeometry relative="1" as="geometry" />
        </mxCell>
        <mxCell id="AM82pgl3Qrm1n0prbC0w-16" value="create cell (coronary)" style="edgeLabel;html=1;align=center;verticalAlign=middle;resizable=0;points=[];" parent="AM82pgl3Qrm1n0prbC0w-15" vertex="1" connectable="0">
          <mxGeometry x="-0.1458" y="-3" relative="1" as="geometry">
            <mxPoint as="offset" />
          </mxGeometry>
        </mxCell>
        <mxCell id="PrnIelNArpjqt_aPvham-12" value="" style="edgeStyle=orthogonalEdgeStyle;rounded=0;orthogonalLoop=1;jettySize=auto;html=1;strokeWidth=4;fontSize=16;endArrow=none;endFill=0;" parent="1" source="AM82pgl3Qrm1n0prbC0w-17" target="PrnIelNArpjqt_aPvham-11" edge="1">
          <mxGeometry relative="1" as="geometry" />
        </mxCell>
        <mxCell id="AM82pgl3Qrm1n0prbC0w-17" value="" style="verticalLabelPosition=bottom;verticalAlign=top;html=1;strokeWidth=4;shape=mxgraph.flowchart.on-page_reference;strokeColor=#d6b656;fillColor=#fff2cc;" parent="1" vertex="1">
          <mxGeometry x="130" y="371" width="30" height="30" as="geometry" />
        </mxCell>
        <mxCell id="AM82pgl3Qrm1n0prbC0w-25" value="maker-organs" style="text;html=1;strokeColor=none;fillColor=none;align=left;verticalAlign=middle;whiteSpace=wrap;overflow=hidden;fontSize=14;fontStyle=1;fontFamily=Courier New;" parent="1" vertex="1">
          <mxGeometry x="-289.5" y="371" width="112.25" height="20" as="geometry" />
        </mxCell>
        <mxCell id="AM82pgl3Qrm1n0prbC0w-28" value="create" style="edgeStyle=orthogonalEdgeStyle;rounded=0;orthogonalLoop=1;jettySize=auto;html=1;strokeWidth=4;" parent="1" source="AM82pgl3Qrm1n0prbC0w-29" target="AM82pgl3Qrm1n0prbC0w-47" edge="1">
          <mxGeometry relative="1" as="geometry" />
        </mxCell>
        <mxCell id="AM82pgl3Qrm1n0prbC0w-29" value="" style="verticalLabelPosition=bottom;verticalAlign=top;html=1;strokeWidth=4;shape=mxgraph.flowchart.on-page_reference;strokeColor=#6c8ebf;fillColor=#dae8fc;" parent="1" vertex="1">
          <mxGeometry x="220" y="445" width="30" height="30" as="geometry" />
        </mxCell>
        <mxCell id="AM82pgl3Qrm1n0prbC0w-34" value="maker-biocells" style="text;html=1;strokeColor=none;fillColor=none;align=left;verticalAlign=middle;whiteSpace=wrap;overflow=hidden;fontSize=14;fontStyle=1;fontFamily=Courier New;" parent="1" vertex="1">
          <mxGeometry x="-290" y="455" width="240" height="20" as="geometry" />
        </mxCell>
        <mxCell id="AM82pgl3Qrm1n0prbC0w-40" value="BD" style="text;html=1;strokeColor=none;fillColor=none;align=left;verticalAlign=middle;whiteSpace=wrap;overflow=hidden;fontSize=14;fontStyle=1;fontFamily=Courier New;" parent="1" vertex="1">
          <mxGeometry x="-287.75" y="533" width="240" height="20" as="geometry" />
        </mxCell>
        <mxCell id="AM82pgl3Qrm1n0prbC0w-41" style="edgeStyle=orthogonalEdgeStyle;rounded=0;orthogonalLoop=1;jettySize=auto;html=1;entryX=1;entryY=0.5;entryDx=0;entryDy=0;entryPerimeter=0;endArrow=none;endFill=0;strokeWidth=4;curved=1;exitX=0;exitY=0.5;exitDx=0;exitDy=0;exitPerimeter=0;" parent="1" target="AM82pgl3Qrm1n0prbC0w-10" edge="1">
          <mxGeometry relative="1" as="geometry">
            <mxPoint x="1105" y="386" as="sourcePoint" />
            <mxPoint x="1244.75" y="316" as="targetPoint" />
            <Array as="points">
              <mxPoint x="1085" y="386" />
              <mxPoint x="1085" y="306" />
            </Array>
          </mxGeometry>
        </mxCell>
        <mxCell id="AM82pgl3Qrm1n0prbC0w-42" value="create organ (artery)" style="edgeLabel;html=1;align=center;verticalAlign=middle;resizable=0;points=[];" parent="AM82pgl3Qrm1n0prbC0w-41" vertex="1" connectable="0">
          <mxGeometry x="0.1429" y="3" relative="1" as="geometry">
            <mxPoint y="10" as="offset" />
          </mxGeometry>
        </mxCell>
        <mxCell id="AM82pgl3Qrm1n0prbC0w-47" value="" style="verticalLabelPosition=bottom;verticalAlign=top;html=1;strokeWidth=4;shape=mxgraph.flowchart.on-page_reference;strokeColor=#9673a6;fillColor=#e1d5e7;" parent="1" vertex="1">
          <mxGeometry x="220" y="535" width="30" height="30" as="geometry" />
        </mxCell>
        <mxCell id="AM82pgl3Qrm1n0prbC0w-49" value="" style="edgeStyle=orthogonalEdgeStyle;rounded=0;orthogonalLoop=1;jettySize=auto;html=1;endArrow=none;endFill=0;strokeWidth=4;exitX=1;exitY=0.5;exitDx=0;exitDy=0;exitPerimeter=0;entryX=0;entryY=0.5;entryDx=0;entryDy=0;entryPerimeter=0;" parent="1" source="AM82pgl3Qrm1n0prbC0w-47" edge="1">
          <mxGeometry relative="1" as="geometry">
            <mxPoint x="260" y="450" as="sourcePoint" />
            <mxPoint x="1020" y="550" as="targetPoint" />
            <Array as="points">
              <mxPoint x="315" y="550" />
              <mxPoint x="315" y="550" />
            </Array>
          </mxGeometry>
        </mxCell>
        <mxCell id="AM82pgl3Qrm1n0prbC0w-50" value="Event Driven Maker Patient" style="text;html=1;strokeColor=#666666;fillColor=#f5f5f5;align=center;verticalAlign=middle;whiteSpace=wrap;rounded=0;fontStyle=1;fontSize=29;fontColor=#333333;" parent="1" vertex="1">
          <mxGeometry x="-287.75" y="80" width="490" height="60" as="geometry" />
        </mxCell>
        <mxCell id="AM82pgl3Qrm1n0prbC0w-51" value="" style="verticalLabelPosition=bottom;verticalAlign=top;html=1;strokeWidth=4;shape=mxgraph.flowchart.on-page_reference;strokeColor=#d79b00;fillColor=#ffe6cc;" parent="1" vertex="1">
          <mxGeometry x="1580" y="206" width="30" height="30" as="geometry" />
        </mxCell>
        <mxCell id="AM82pgl3Qrm1n0prbC0w-52" value="" style="edgeStyle=orthogonalEdgeStyle;rounded=0;html=1;jettySize=auto;orthogonalLoop=1;plain-blue;endArrow=none;endFill=0;strokeWidth=4;strokeColor=#000000;startArrow=none;exitX=1;exitY=0.5;exitDx=0;exitDy=0;exitPerimeter=0;" parent="1" source="AM82pgl3Qrm1n0prbC0w-4" target="AM82pgl3Qrm1n0prbC0w-51" edge="1">
          <mxGeometry x="-17.75" y="221" as="geometry">
            <mxPoint x="840" y="221" as="targetPoint" />
            <mxPoint x="310" y="221" as="sourcePoint" />
          </mxGeometry>
        </mxCell>
        <mxCell id="AM82pgl3Qrm1n0prbC0w-64" value="" style="edgeStyle=orthogonalEdgeStyle;rounded=0;orthogonalLoop=1;jettySize=auto;html=1;endArrow=none;endFill=0;strokeWidth=4;" parent="1" edge="1">
          <mxGeometry relative="1" as="geometry">
            <mxPoint x="1020" y="550" as="sourcePoint" />
            <mxPoint x="1190" y="550" as="targetPoint" />
            <Array as="points">
              <mxPoint x="1145" y="550" />
            </Array>
          </mxGeometry>
        </mxCell>
        <mxCell id="PrnIelNArpjqt_aPvham-1" value="BUS EVENT" style="rounded=1;whiteSpace=wrap;html=1;fillColor=#6d8764;fontColor=#ffffff;strokeColor=#3A5431;fontStyle=1;fontSize=16;" parent="1" vertex="1">
          <mxGeometry x="10" y="690" width="1620" height="120" as="geometry" />
        </mxCell>
        <mxCell id="PrnIelNArpjqt_aPvham-2" value="topic: new-cells&lt;br&gt;ev: created" style="edgeStyle=orthogonalEdgeStyle;rounded=0;orthogonalLoop=1;jettySize=auto;html=1;dashed=1;exitX=0.5;exitY=1;exitDx=0;exitDy=0;exitPerimeter=0;" parent="1" source="PrnIelNArpjqt_aPvham-5" edge="1">
          <mxGeometry x="0.4615" relative="1" as="geometry">
            <mxPoint x="245" y="571" as="sourcePoint" />
            <mxPoint x="345" y="680" as="targetPoint" />
            <Array as="points">
              <mxPoint x="345" y="650" />
              <mxPoint x="345" y="650" />
            </Array>
            <mxPoint as="offset" />
          </mxGeometry>
        </mxCell>
        <mxCell id="PrnIelNArpjqt_aPvham-3" value="subscribe&lt;br&gt;topic: new-organs" style="edgeStyle=orthogonalEdgeStyle;rounded=0;orthogonalLoop=1;jettySize=auto;html=1;dashed=1;exitX=0.5;exitY=1;exitDx=0;exitDy=0;exitPerimeter=0;" parent="1" source="AM82pgl3Qrm1n0prbC0w-8" edge="1">
          <mxGeometry relative="1" as="geometry">
            <mxPoint x="70" y="540" as="sourcePoint" />
            <mxPoint x="45" y="680" as="targetPoint" />
            <Array as="points">
              <mxPoint x="45" y="620" />
            </Array>
          </mxGeometry>
        </mxCell>
        <mxCell id="PrnIelNArpjqt_aPvham-4" value="subscribe&lt;br&gt;topic: new-cells" style="edgeStyle=orthogonalEdgeStyle;rounded=0;orthogonalLoop=1;jettySize=auto;html=1;dashed=1;exitX=0.5;exitY=1;exitDx=0;exitDy=0;exitPerimeter=0;" parent="1" source="AM82pgl3Qrm1n0prbC0w-17" edge="1">
          <mxGeometry relative="1" as="geometry">
            <mxPoint x="140" y="410" as="sourcePoint" />
            <mxPoint x="145" y="680" as="targetPoint" />
            <Array as="points">
              <mxPoint x="145" y="650" />
            </Array>
          </mxGeometry>
        </mxCell>
        <mxCell id="PrnIelNArpjqt_aPvham-15" value="" style="edgeStyle=orthogonalEdgeStyle;rounded=0;orthogonalLoop=1;jettySize=auto;html=1;strokeWidth=4;fontSize=16;endArrow=none;endFill=0;entryX=0;entryY=0.5;entryDx=0;entryDy=0;entryPerimeter=0;" parent="1" source="PrnIelNArpjqt_aPvham-5" target="PrnIelNArpjqt_aPvham-19" edge="1">
          <mxGeometry relative="1" as="geometry">
            <mxPoint x="510" y="460" as="targetPoint" />
          </mxGeometry>
        </mxCell>
        <mxCell id="PrnIelNArpjqt_aPvham-5" value="" style="verticalLabelPosition=bottom;verticalAlign=top;html=1;strokeWidth=4;shape=mxgraph.flowchart.on-page_reference;strokeColor=#6c8ebf;fillColor=#dae8fc;" parent="1" vertex="1">
          <mxGeometry x="330" y="445" width="30" height="30" as="geometry" />
        </mxCell>
        <mxCell id="PrnIelNArpjqt_aPvham-8" value="" style="edgeStyle=orthogonalEdgeStyle;rounded=0;orthogonalLoop=1;jettySize=auto;html=1;endArrow=none;endFill=0;strokeWidth=4;exitX=1;exitY=0.5;exitDx=0;exitDy=0;exitPerimeter=0;entryX=0;entryY=0.5;entryDx=0;entryDy=0;entryPerimeter=0;" parent="1" source="AM82pgl3Qrm1n0prbC0w-29" target="PrnIelNArpjqt_aPvham-5" edge="1">
          <mxGeometry relative="1" as="geometry">
            <mxPoint x="250" y="464.5" as="sourcePoint" />
            <mxPoint x="390" y="464.5" as="targetPoint" />
            <Array as="points">
              <mxPoint x="320" y="460" />
              <mxPoint x="320" y="460" />
            </Array>
          </mxGeometry>
        </mxCell>
        <mxCell id="PrnIelNArpjqt_aPvham-9" style="edgeStyle=orthogonalEdgeStyle;curved=1;rounded=0;orthogonalLoop=1;jettySize=auto;html=1;entryX=0;entryY=0.5;entryDx=0;entryDy=0;entryPerimeter=0;endArrow=none;endFill=0;strokeWidth=4;fontFamily=Courier New;fontColor=#009900;exitX=1;exitY=0.5;exitDx=0;exitDy=0;exitPerimeter=0;" parent="1" source="AM82pgl3Qrm1n0prbC0w-47" target="PrnIelNArpjqt_aPvham-5" edge="1">
          <mxGeometry relative="1" as="geometry">
            <mxPoint x="320" y="500" as="targetPoint" />
            <mxPoint x="240" y="580" as="sourcePoint" />
          </mxGeometry>
        </mxCell>
        <mxCell id="PrnIelNArpjqt_aPvham-11" value="" style="verticalLabelPosition=bottom;verticalAlign=top;html=1;strokeWidth=4;shape=mxgraph.flowchart.on-page_reference;strokeColor=#d6b656;fillColor=#fff2cc;" parent="1" vertex="1">
          <mxGeometry x="420" y="371" width="30" height="30" as="geometry" />
        </mxCell>
        <mxCell id="PrnIelNArpjqt_aPvham-13" style="edgeStyle=orthogonalEdgeStyle;curved=1;rounded=0;orthogonalLoop=1;jettySize=auto;html=1;entryX=0;entryY=0.5;entryDx=0;entryDy=0;entryPerimeter=0;endArrow=none;endFill=0;strokeWidth=4;fontFamily=Courier New;fontColor=#009900;exitX=1;exitY=0.5;exitDx=0;exitDy=0;exitPerimeter=0;" parent="1" source="PrnIelNArpjqt_aPvham-5" target="PrnIelNArpjqt_aPvham-11" edge="1">
          <mxGeometry relative="1" as="geometry">
            <mxPoint x="340" y="470" as="targetPoint" />
            <mxPoint x="260" y="560" as="sourcePoint" />
          </mxGeometry>
        </mxCell>
        <mxCell id="PrnIelNArpjqt_aPvham-16" style="edgeStyle=orthogonalEdgeStyle;curved=1;rounded=0;orthogonalLoop=1;jettySize=auto;html=1;exitX=1;exitY=0.5;exitDx=0;exitDy=0;exitPerimeter=0;entryX=0;entryY=0.5;entryDx=0;entryDy=0;entryPerimeter=0;endArrow=none;endFill=0;strokeWidth=4;fontFamily=Courier New;fontColor=#009900;" parent="1" source="PrnIelNArpjqt_aPvham-11" target="PrnIelNArpjqt_aPvham-19" edge="1">
          <mxGeometry relative="1" as="geometry">
            <mxPoint x="500" y="401" as="sourcePoint" />
            <mxPoint x="510" y="460" as="targetPoint" />
          </mxGeometry>
        </mxCell>
        <mxCell id="PrnIelNArpjqt_aPvham-17" value="create cell (coronary)" style="edgeLabel;html=1;align=center;verticalAlign=middle;resizable=0;points=[];" parent="PrnIelNArpjqt_aPvham-16" vertex="1" connectable="0">
          <mxGeometry x="-0.1458" y="-3" relative="1" as="geometry">
            <mxPoint as="offset" />
          </mxGeometry>
        </mxCell>
        <mxCell id="PrnIelNArpjqt_aPvham-18" value="create" style="edgeStyle=orthogonalEdgeStyle;rounded=0;orthogonalLoop=1;jettySize=auto;html=1;strokeWidth=4;" parent="1" source="PrnIelNArpjqt_aPvham-19" target="PrnIelNArpjqt_aPvham-20" edge="1">
          <mxGeometry relative="1" as="geometry" />
        </mxCell>
        <mxCell id="PrnIelNArpjqt_aPvham-19" value="" style="verticalLabelPosition=bottom;verticalAlign=top;html=1;strokeWidth=4;shape=mxgraph.flowchart.on-page_reference;strokeColor=#6c8ebf;fillColor=#dae8fc;" parent="1" vertex="1">
          <mxGeometry x="511" y="445" width="30" height="30" as="geometry" />
        </mxCell>
        <mxCell id="PrnIelNArpjqt_aPvham-20" value="" style="verticalLabelPosition=bottom;verticalAlign=top;html=1;strokeWidth=4;shape=mxgraph.flowchart.on-page_reference;strokeColor=#9673a6;fillColor=#e1d5e7;" parent="1" vertex="1">
          <mxGeometry x="511" y="535" width="30" height="30" as="geometry" />
        </mxCell>
        <mxCell id="PrnIelNArpjqt_aPvham-21" value="topic: new-cells&lt;br&gt;ev: created" style="edgeStyle=orthogonalEdgeStyle;rounded=0;orthogonalLoop=1;jettySize=auto;html=1;dashed=1;exitX=0.5;exitY=1;exitDx=0;exitDy=0;exitPerimeter=0;" parent="1" source="PrnIelNArpjqt_aPvham-22" edge="1">
          <mxGeometry x="0.4615" relative="1" as="geometry">
            <mxPoint x="536" y="571" as="sourcePoint" />
            <mxPoint x="636" y="680" as="targetPoint" />
            <Array as="points">
              <mxPoint x="636" y="650" />
              <mxPoint x="636" y="650" />
            </Array>
            <mxPoint as="offset" />
          </mxGeometry>
        </mxCell>
        <mxCell id="PrnIelNArpjqt_aPvham-22" value="" style="verticalLabelPosition=bottom;verticalAlign=top;html=1;strokeWidth=4;shape=mxgraph.flowchart.on-page_reference;strokeColor=#6c8ebf;fillColor=#dae8fc;" parent="1" vertex="1">
          <mxGeometry x="621" y="445" width="30" height="30" as="geometry" />
        </mxCell>
        <mxCell id="PrnIelNArpjqt_aPvham-23" value="" style="edgeStyle=orthogonalEdgeStyle;rounded=0;orthogonalLoop=1;jettySize=auto;html=1;endArrow=none;endFill=0;strokeWidth=4;exitX=1;exitY=0.5;exitDx=0;exitDy=0;exitPerimeter=0;entryX=0;entryY=0.5;entryDx=0;entryDy=0;entryPerimeter=0;" parent="1" source="PrnIelNArpjqt_aPvham-19" target="PrnIelNArpjqt_aPvham-22" edge="1">
          <mxGeometry relative="1" as="geometry">
            <mxPoint x="541" y="464.5" as="sourcePoint" />
            <mxPoint x="681" y="464.5" as="targetPoint" />
            <Array as="points">
              <mxPoint x="611" y="460" />
              <mxPoint x="611" y="460" />
            </Array>
          </mxGeometry>
        </mxCell>
        <mxCell id="PrnIelNArpjqt_aPvham-24" style="edgeStyle=orthogonalEdgeStyle;curved=1;rounded=0;orthogonalLoop=1;jettySize=auto;html=1;entryX=0;entryY=0.5;entryDx=0;entryDy=0;entryPerimeter=0;endArrow=none;endFill=0;strokeWidth=4;fontFamily=Courier New;fontColor=#009900;exitX=1;exitY=0.5;exitDx=0;exitDy=0;exitPerimeter=0;" parent="1" source="PrnIelNArpjqt_aPvham-20" target="PrnIelNArpjqt_aPvham-22" edge="1">
          <mxGeometry relative="1" as="geometry">
            <mxPoint x="611" y="500" as="targetPoint" />
            <mxPoint x="531" y="580" as="sourcePoint" />
          </mxGeometry>
        </mxCell>
        <mxCell id="PrnIelNArpjqt_aPvham-25" value="" style="verticalLabelPosition=bottom;verticalAlign=top;html=1;strokeWidth=4;shape=mxgraph.flowchart.on-page_reference;strokeColor=#d6b656;fillColor=#fff2cc;" parent="1" vertex="1">
          <mxGeometry x="711" y="371" width="30" height="30" as="geometry" />
        </mxCell>
        <mxCell id="PrnIelNArpjqt_aPvham-26" style="edgeStyle=orthogonalEdgeStyle;curved=1;rounded=0;orthogonalLoop=1;jettySize=auto;html=1;entryX=0;entryY=0.5;entryDx=0;entryDy=0;entryPerimeter=0;endArrow=none;endFill=0;strokeWidth=4;fontFamily=Courier New;fontColor=#009900;exitX=1;exitY=0.5;exitDx=0;exitDy=0;exitPerimeter=0;" parent="1" target="PrnIelNArpjqt_aPvham-25" edge="1">
          <mxGeometry relative="1" as="geometry">
            <mxPoint x="631" y="470" as="targetPoint" />
            <mxPoint x="651" y="460" as="sourcePoint" />
          </mxGeometry>
        </mxCell>
        <mxCell id="PrnIelNArpjqt_aPvham-31" style="edgeStyle=orthogonalEdgeStyle;curved=1;rounded=0;orthogonalLoop=1;jettySize=auto;html=1;exitX=1;exitY=0.5;exitDx=0;exitDy=0;exitPerimeter=0;endArrow=none;endFill=0;strokeWidth=4;fontFamily=Courier New;fontColor=#009900;" parent="1" edge="1">
          <mxGeometry relative="1" as="geometry">
            <mxPoint x="741" y="386" as="sourcePoint" />
            <mxPoint x="800" y="460" as="targetPoint" />
            <Array as="points">
              <mxPoint x="760" y="386" />
              <mxPoint x="760" y="460" />
            </Array>
          </mxGeometry>
        </mxCell>
        <mxCell id="PrnIelNArpjqt_aPvham-32" value="create cell (coronary)" style="edgeLabel;html=1;align=center;verticalAlign=middle;resizable=0;points=[];" parent="PrnIelNArpjqt_aPvham-31" vertex="1" connectable="0">
          <mxGeometry x="-0.1458" y="-3" relative="1" as="geometry">
            <mxPoint as="offset" />
          </mxGeometry>
        </mxCell>
        <mxCell id="PrnIelNArpjqt_aPvham-33" value="&lt;font style=&quot;font-size: 25px;&quot;&gt;*&lt;/font&gt;" style="edgeLabel;html=1;align=center;verticalAlign=middle;resizable=0;points=[];" parent="1" vertex="1" connectable="0">
          <mxGeometry x="820" y="460" as="geometry" />
        </mxCell>
        <mxCell id="PrnIelNArpjqt_aPvham-34" value="" style="verticalLabelPosition=bottom;verticalAlign=top;html=1;strokeWidth=4;shape=mxgraph.flowchart.on-page_reference;strokeColor=#d6b656;fillColor=#fff2cc;" parent="1" vertex="1">
          <mxGeometry x="900" y="371" width="30" height="30" as="geometry" />
        </mxCell>
        <mxCell id="PrnIelNArpjqt_aPvham-35" style="edgeStyle=orthogonalEdgeStyle;curved=1;rounded=0;orthogonalLoop=1;jettySize=auto;html=1;entryX=0;entryY=0.5;entryDx=0;entryDy=0;entryPerimeter=0;endArrow=none;endFill=0;strokeWidth=4;fontFamily=Courier New;fontColor=#009900;exitX=1;exitY=0.5;exitDx=0;exitDy=0;exitPerimeter=0;" parent="1" target="PrnIelNArpjqt_aPvham-34" edge="1">
          <mxGeometry relative="1" as="geometry">
            <mxPoint x="820" y="470" as="targetPoint" />
            <mxPoint x="840" y="460" as="sourcePoint" />
          </mxGeometry>
        </mxCell>
        <mxCell id="PrnIelNArpjqt_aPvham-36" value="creation N cells" style="text;html=1;strokeColor=#C73500;fillColor=#fa6800;align=center;verticalAlign=middle;whiteSpace=wrap;rounded=0;fontSize=17;fontColor=#000000;" parent="1" vertex="1">
          <mxGeometry x="740" y="475" width="150" height="30" as="geometry" />
        </mxCell>
        <mxCell id="PrnIelNArpjqt_aPvham-37" value="topic: new-organs&lt;br&gt;ev: complete" style="edgeStyle=orthogonalEdgeStyle;rounded=0;orthogonalLoop=1;jettySize=auto;html=1;dashed=1;exitX=0.5;exitY=1;exitDx=0;exitDy=0;exitPerimeter=0;" parent="1" source="PrnIelNArpjqt_aPvham-34" edge="1">
          <mxGeometry x="0.4615" relative="1" as="geometry">
            <mxPoint x="914.5" y="475" as="sourcePoint" />
            <mxPoint x="914.5" y="680" as="targetPoint" />
            <Array as="points">
              <mxPoint x="915" y="650" />
            </Array>
            <mxPoint as="offset" />
          </mxGeometry>
        </mxCell>
        <mxCell id="PrnIelNArpjqt_aPvham-38" style="edgeStyle=orthogonalEdgeStyle;curved=1;rounded=0;orthogonalLoop=1;jettySize=auto;html=1;entryX=0;entryY=0.5;entryDx=0;entryDy=0;entryPerimeter=0;endArrow=none;endFill=0;strokeWidth=4;fontFamily=Courier New;fontColor=#009900;exitX=1;exitY=0.5;exitDx=0;exitDy=0;exitPerimeter=0;" parent="1" source="PrnIelNArpjqt_aPvham-34" target="AM82pgl3Qrm1n0prbC0w-10" edge="1">
          <mxGeometry relative="1" as="geometry">
            <mxPoint x="910" y="396" as="targetPoint" />
            <mxPoint x="850" y="470" as="sourcePoint" />
          </mxGeometry>
        </mxCell>
        <mxCell id="PrnIelNArpjqt_aPvham-39" style="edgeStyle=orthogonalEdgeStyle;curved=1;rounded=0;orthogonalLoop=1;jettySize=auto;html=1;exitX=1;exitY=0.5;exitDx=0;exitDy=0;exitPerimeter=0;entryX=0;entryY=0.5;entryDx=0;entryDy=0;entryPerimeter=0;endArrow=none;endFill=0;strokeWidth=4;fontFamily=Courier New;fontColor=#009900;" parent="1" source="PrnIelNArpjqt_aPvham-41" target="PrnIelNArpjqt_aPvham-43" edge="1">
          <mxGeometry relative="1" as="geometry" />
        </mxCell>
        <mxCell id="PrnIelNArpjqt_aPvham-40" value="create cell (red blood)" style="edgeLabel;html=1;align=center;verticalAlign=middle;resizable=0;points=[];" parent="PrnIelNArpjqt_aPvham-39" vertex="1" connectable="0">
          <mxGeometry x="-0.1458" y="-3" relative="1" as="geometry">
            <mxPoint as="offset" />
          </mxGeometry>
        </mxCell>
        <mxCell id="PrnIelNArpjqt_aPvham-41" value="" style="verticalLabelPosition=bottom;verticalAlign=top;html=1;strokeWidth=4;shape=mxgraph.flowchart.on-page_reference;strokeColor=#d6b656;fillColor=#fff2cc;" parent="1" vertex="1">
          <mxGeometry x="1100" y="371" width="30" height="30" as="geometry" />
        </mxCell>
        <mxCell id="PrnIelNArpjqt_aPvham-42" value="create" style="edgeStyle=orthogonalEdgeStyle;rounded=0;orthogonalLoop=1;jettySize=auto;html=1;strokeWidth=4;" parent="1" source="PrnIelNArpjqt_aPvham-43" target="PrnIelNArpjqt_aPvham-44" edge="1">
          <mxGeometry relative="1" as="geometry" />
        </mxCell>
        <mxCell id="PrnIelNArpjqt_aPvham-43" value="" style="verticalLabelPosition=bottom;verticalAlign=top;html=1;strokeWidth=4;shape=mxgraph.flowchart.on-page_reference;strokeColor=#6c8ebf;fillColor=#dae8fc;" parent="1" vertex="1">
          <mxGeometry x="1190" y="445" width="30" height="30" as="geometry" />
        </mxCell>
        <mxCell id="PrnIelNArpjqt_aPvham-44" value="" style="verticalLabelPosition=bottom;verticalAlign=top;html=1;strokeWidth=4;shape=mxgraph.flowchart.on-page_reference;strokeColor=#9673a6;fillColor=#e1d5e7;" parent="1" vertex="1">
          <mxGeometry x="1190" y="535" width="30" height="30" as="geometry" />
        </mxCell>
        <mxCell id="PrnIelNArpjqt_aPvham-45" value="topic: new-cells&lt;br&gt;ev: created" style="edgeStyle=orthogonalEdgeStyle;rounded=0;orthogonalLoop=1;jettySize=auto;html=1;dashed=1;exitX=0.5;exitY=1;exitDx=0;exitDy=0;exitPerimeter=0;" parent="1" source="PrnIelNArpjqt_aPvham-47" edge="1">
          <mxGeometry x="0.4615" relative="1" as="geometry">
            <mxPoint x="1215" y="571" as="sourcePoint" />
            <mxPoint x="1315" y="680" as="targetPoint" />
            <Array as="points">
              <mxPoint x="1315" y="650" />
              <mxPoint x="1315" y="650" />
            </Array>
            <mxPoint as="offset" />
          </mxGeometry>
        </mxCell>
        <mxCell id="PrnIelNArpjqt_aPvham-46" value="subscribe&lt;br&gt;topic: new-cells" style="edgeStyle=orthogonalEdgeStyle;rounded=0;orthogonalLoop=1;jettySize=auto;html=1;dashed=1;exitX=0.5;exitY=1;exitDx=0;exitDy=0;exitPerimeter=0;" parent="1" source="PrnIelNArpjqt_aPvham-41" edge="1">
          <mxGeometry relative="1" as="geometry">
            <mxPoint x="1110" y="410" as="sourcePoint" />
            <mxPoint x="1115" y="680" as="targetPoint" />
            <Array as="points">
              <mxPoint x="1115" y="650" />
            </Array>
          </mxGeometry>
        </mxCell>
        <mxCell id="PrnIelNArpjqt_aPvham-47" value="" style="verticalLabelPosition=bottom;verticalAlign=top;html=1;strokeWidth=4;shape=mxgraph.flowchart.on-page_reference;strokeColor=#6c8ebf;fillColor=#dae8fc;" parent="1" vertex="1">
          <mxGeometry x="1300" y="445" width="30" height="30" as="geometry" />
        </mxCell>
        <mxCell id="PrnIelNArpjqt_aPvham-48" value="" style="edgeStyle=orthogonalEdgeStyle;rounded=0;orthogonalLoop=1;jettySize=auto;html=1;endArrow=none;endFill=0;strokeWidth=4;exitX=1;exitY=0.5;exitDx=0;exitDy=0;exitPerimeter=0;entryX=0;entryY=0.5;entryDx=0;entryDy=0;entryPerimeter=0;" parent="1" source="PrnIelNArpjqt_aPvham-43" target="PrnIelNArpjqt_aPvham-47" edge="1">
          <mxGeometry relative="1" as="geometry">
            <mxPoint x="1220" y="464.5" as="sourcePoint" />
            <mxPoint x="1360" y="464.5" as="targetPoint" />
            <Array as="points">
              <mxPoint x="1290" y="460" />
              <mxPoint x="1290" y="460" />
            </Array>
          </mxGeometry>
        </mxCell>
        <mxCell id="PrnIelNArpjqt_aPvham-49" style="edgeStyle=orthogonalEdgeStyle;curved=1;rounded=0;orthogonalLoop=1;jettySize=auto;html=1;entryX=0;entryY=0.5;entryDx=0;entryDy=0;entryPerimeter=0;endArrow=none;endFill=0;strokeWidth=4;fontFamily=Courier New;fontColor=#009900;exitX=1;exitY=0.5;exitDx=0;exitDy=0;exitPerimeter=0;" parent="1" source="PrnIelNArpjqt_aPvham-44" target="PrnIelNArpjqt_aPvham-47" edge="1">
          <mxGeometry relative="1" as="geometry">
            <mxPoint x="1290" y="500" as="targetPoint" />
            <mxPoint x="1210" y="580" as="sourcePoint" />
          </mxGeometry>
        </mxCell>
        <mxCell id="4ewt5UltZxNOSbqsNuyk-1" value="" style="verticalLabelPosition=bottom;verticalAlign=top;html=1;strokeWidth=4;shape=mxgraph.flowchart.on-page_reference;strokeColor=#666666;fillColor=#f5f5f5;fontColor=#333333;" parent="1" vertex="1">
          <mxGeometry x="1470" y="291" width="30" height="30" as="geometry" />
        </mxCell>
        <mxCell id="4ewt5UltZxNOSbqsNuyk-3" value="" style="verticalLabelPosition=bottom;verticalAlign=top;html=1;strokeWidth=4;shape=mxgraph.flowchart.on-page_reference;strokeColor=#d6b656;fillColor=#fff2cc;" parent="1" vertex="1">
          <mxGeometry x="1380" y="371" width="30" height="30" as="geometry" />
        </mxCell>
        <mxCell id="4ewt5UltZxNOSbqsNuyk-4" style="edgeStyle=orthogonalEdgeStyle;curved=1;rounded=0;orthogonalLoop=1;jettySize=auto;html=1;entryX=0;entryY=0.5;entryDx=0;entryDy=0;entryPerimeter=0;endArrow=none;endFill=0;strokeWidth=4;fontFamily=Courier New;fontColor=#009900;exitX=1;exitY=0.5;exitDx=0;exitDy=0;exitPerimeter=0;" parent="1" source="4ewt5UltZxNOSbqsNuyk-3" target="4ewt5UltZxNOSbqsNuyk-1" edge="1">
          <mxGeometry relative="1" as="geometry">
            <mxPoint x="1380" y="396" as="targetPoint" />
            <mxPoint x="1320" y="470" as="sourcePoint" />
          </mxGeometry>
        </mxCell>
        <mxCell id="4ewt5UltZxNOSbqsNuyk-6" style="edgeStyle=orthogonalEdgeStyle;curved=1;rounded=0;html=1;exitX=1;exitY=0.5;exitPerimeter=0;endArrow=none;endFill=0;jettySize=auto;orthogonalLoop=1;strokeWidth=4;fontSize=15;entryX=0;entryY=0.5;entryDx=0;entryDy=0;entryPerimeter=0;exitDx=0;exitDy=0;" parent="1" source="PrnIelNArpjqt_aPvham-41" target="4ewt5UltZxNOSbqsNuyk-3" edge="1">
          <mxGeometry relative="1" as="geometry">
            <mxPoint x="1050" y="316" as="sourcePoint" />
            <mxPoint x="1285" y="316" as="targetPoint" />
          </mxGeometry>
        </mxCell>
        <mxCell id="4ewt5UltZxNOSbqsNuyk-7" style="edgeStyle=orthogonalEdgeStyle;curved=1;rounded=0;orthogonalLoop=1;jettySize=auto;html=1;entryX=0;entryY=0.5;entryDx=0;entryDy=0;entryPerimeter=0;endArrow=none;endFill=0;strokeWidth=4;fontFamily=Courier New;fontColor=#009900;exitX=1;exitY=0.5;exitDx=0;exitDy=0;exitPerimeter=0;" parent="1" source="PrnIelNArpjqt_aPvham-47" target="4ewt5UltZxNOSbqsNuyk-3" edge="1">
          <mxGeometry relative="1" as="geometry">
            <mxPoint x="1595" y="316" as="targetPoint" />
            <mxPoint x="1515" y="396" as="sourcePoint" />
          </mxGeometry>
        </mxCell>
        <mxCell id="4ewt5UltZxNOSbqsNuyk-8" style="edgeStyle=orthogonalEdgeStyle;curved=1;rounded=0;orthogonalLoop=1;jettySize=auto;html=1;entryX=0;entryY=0.5;entryDx=0;entryDy=0;entryPerimeter=0;endArrow=none;endFill=0;strokeWidth=4;fontFamily=Courier New;fontColor=#009900;exitX=1;exitY=0.5;exitDx=0;exitDy=0;exitPerimeter=0;" parent="1" source="4ewt5UltZxNOSbqsNuyk-1" target="AM82pgl3Qrm1n0prbC0w-51" edge="1">
          <mxGeometry relative="1" as="geometry">
            <mxPoint x="1490" y="316" as="targetPoint" />
            <mxPoint x="1410" y="396" as="sourcePoint" />
          </mxGeometry>
        </mxCell>
        <mxCell id="4ewt5UltZxNOSbqsNuyk-9" value="topic: new-organs&lt;br&gt;ev: complete" style="edgeStyle=orthogonalEdgeStyle;rounded=0;orthogonalLoop=1;jettySize=auto;html=1;dashed=1;exitX=0.5;exitY=1;exitDx=0;exitDy=0;exitPerimeter=0;" parent="1" edge="1">
          <mxGeometry x="0.4615" relative="1" as="geometry">
            <mxPoint x="1395" y="401" as="sourcePoint" />
            <mxPoint x="1394.5" y="680" as="targetPoint" />
            <Array as="points">
              <mxPoint x="1395" y="650" />
            </Array>
            <mxPoint as="offset" />
          </mxGeometry>
        </mxCell>
        <mxCell id="4ewt5UltZxNOSbqsNuyk-10" value="topic: new-system&lt;br&gt;ev: complete" style="edgeStyle=orthogonalEdgeStyle;rounded=0;orthogonalLoop=1;jettySize=auto;html=1;dashed=1;exitX=0.5;exitY=1;exitDx=0;exitDy=0;exitPerimeter=0;" parent="1" source="4ewt5UltZxNOSbqsNuyk-1" edge="1">
          <mxGeometry x="0.4615" relative="1" as="geometry">
            <mxPoint x="1485" y="330" as="sourcePoint" />
            <mxPoint x="1484.5" y="680" as="targetPoint" />
            <Array as="points">
              <mxPoint x="1485" y="650" />
            </Array>
            <mxPoint as="offset" />
          </mxGeometry>
        </mxCell>
        <mxCell id="4ewt5UltZxNOSbqsNuyk-11" value="topic: new-patient&lt;br&gt;ev: complete" style="edgeStyle=orthogonalEdgeStyle;rounded=0;orthogonalLoop=1;jettySize=auto;html=1;dashed=1;exitX=0.5;exitY=1;exitDx=0;exitDy=0;exitPerimeter=0;" parent="1" source="AM82pgl3Qrm1n0prbC0w-51" edge="1">
          <mxGeometry x="0.4615" relative="1" as="geometry">
            <mxPoint x="1595" y="250" as="sourcePoint" />
            <mxPoint x="1595" y="680" as="targetPoint" />
            <Array as="points" />
            <mxPoint as="offset" />
          </mxGeometry>
        </mxCell>
      </root>
    </mxGraphModel>
  </diagram>
  <diagram id="maREZYLlh6sf-DMpuO9u" name="Front Loader">
    <mxGraphModel dx="2815" dy="1522" grid="0" gridSize="10" guides="1" tooltips="1" connect="1" arrows="1" fold="1" page="0" pageScale="1" pageWidth="827" pageHeight="1169" math="0" shadow="0">
      <root>
        <mxCell id="0" />
        <mxCell id="1" parent="0" />
        <mxCell id="ulUya1o2ABFd1QOtWXsq-1" value="" style="whiteSpace=wrap;html=1;fontSize=19;" parent="1" vertex="1">
          <mxGeometry x="190" y="30" width="440" height="640" as="geometry" />
        </mxCell>
        <mxCell id="ulUya1o2ABFd1QOtWXsq-2" value="Nombre:&amp;nbsp;" style="text;html=1;strokeColor=none;fillColor=none;align=center;verticalAlign=middle;whiteSpace=wrap;rounded=0;fontSize=19;" parent="1" vertex="1">
          <mxGeometry x="229" y="130" width="90" height="30" as="geometry" />
        </mxCell>
        <mxCell id="ulUya1o2ABFd1QOtWXsq-4" value="Apellidos:" style="text;html=1;strokeColor=none;fillColor=none;align=center;verticalAlign=middle;whiteSpace=wrap;rounded=0;fontSize=19;" parent="1" vertex="1">
          <mxGeometry x="230" y="170" width="90" height="30" as="geometry" />
        </mxCell>
        <mxCell id="ulUya1o2ABFd1QOtWXsq-5" value="" style="rounded=0;whiteSpace=wrap;html=1;fontSize=19;" parent="1" vertex="1">
          <mxGeometry x="414" y="130" width="160" height="30" as="geometry" />
        </mxCell>
        <mxCell id="ulUya1o2ABFd1QOtWXsq-6" value="" style="rounded=0;whiteSpace=wrap;html=1;fontSize=19;" parent="1" vertex="1">
          <mxGeometry x="414" y="170" width="160" height="30" as="geometry" />
        </mxCell>
        <mxCell id="ulUya1o2ABFd1QOtWXsq-7" value="DNI:" style="text;html=1;strokeColor=none;fillColor=none;align=center;verticalAlign=middle;whiteSpace=wrap;rounded=0;fontSize=19;" parent="1" vertex="1">
          <mxGeometry x="207" y="210" width="90" height="30" as="geometry" />
        </mxCell>
        <mxCell id="ulUya1o2ABFd1QOtWXsq-8" value="" style="rounded=0;whiteSpace=wrap;html=1;fontSize=19;" parent="1" vertex="1">
          <mxGeometry x="414" y="210" width="160" height="30" as="geometry" />
        </mxCell>
        <mxCell id="ulUya1o2ABFd1QOtWXsq-9" value="Fecha Nacimiento:" style="text;html=1;strokeColor=none;fillColor=none;align=center;verticalAlign=middle;whiteSpace=wrap;rounded=0;fontSize=19;" parent="1" vertex="1">
          <mxGeometry x="227" y="250" width="170" height="30" as="geometry" />
        </mxCell>
        <mxCell id="ulUya1o2ABFd1QOtWXsq-10" value="" style="rounded=0;whiteSpace=wrap;html=1;fontSize=19;" parent="1" vertex="1">
          <mxGeometry x="414" y="250" width="160" height="30" as="geometry" />
        </mxCell>
        <mxCell id="ulUya1o2ABFd1QOtWXsq-11" value="Edad:" style="text;html=1;strokeColor=none;fillColor=none;align=left;verticalAlign=middle;whiteSpace=wrap;rounded=0;fontSize=19;" parent="1" vertex="1">
          <mxGeometry x="230" y="290" width="170" height="30" as="geometry" />
        </mxCell>
        <mxCell id="ulUya1o2ABFd1QOtWXsq-12" value="" style="rounded=0;whiteSpace=wrap;html=1;fontSize=19;" parent="1" vertex="1">
          <mxGeometry x="414" y="290" width="160" height="30" as="geometry" />
        </mxCell>
        <mxCell id="ulUya1o2ABFd1QOtWXsq-13" value="Se autocalcula" style="shape=callout;whiteSpace=wrap;html=1;perimeter=calloutPerimeter;fontSize=19;position2=0;base=34;size=35;position=0.39;" parent="1" vertex="1">
          <mxGeometry x="610" y="220" width="170" height="85" as="geometry" />
        </mxCell>
        <mxCell id="ulUya1o2ABFd1QOtWXsq-14" value="Número de Sistemas:" style="text;html=1;strokeColor=none;fillColor=none;align=left;verticalAlign=middle;whiteSpace=wrap;rounded=0;fontSize=19;" parent="1" vertex="1">
          <mxGeometry x="230" y="430" width="200" height="30" as="geometry" />
        </mxCell>
        <mxCell id="ulUya1o2ABFd1QOtWXsq-15" value="" style="rounded=0;whiteSpace=wrap;html=1;fontSize=19;" parent="1" vertex="1">
          <mxGeometry x="490" y="430" width="84" height="30" as="geometry" />
        </mxCell>
        <mxCell id="ulUya1o2ABFd1QOtWXsq-16" value="Número de Órganos/Sistema:" style="text;html=1;strokeColor=none;fillColor=none;align=left;verticalAlign=middle;whiteSpace=wrap;rounded=0;fontSize=19;" parent="1" vertex="1">
          <mxGeometry x="230" y="490" width="200" height="30" as="geometry" />
        </mxCell>
        <mxCell id="ulUya1o2ABFd1QOtWXsq-17" value="" style="rounded=0;whiteSpace=wrap;html=1;fontSize=19;" parent="1" vertex="1">
          <mxGeometry x="490" y="490" width="84" height="30" as="geometry" />
        </mxCell>
        <mxCell id="ulUya1o2ABFd1QOtWXsq-18" value="Número de Células/Órganos" style="text;html=1;strokeColor=none;fillColor=none;align=left;verticalAlign=middle;whiteSpace=wrap;rounded=0;fontSize=19;" parent="1" vertex="1">
          <mxGeometry x="230" y="540" width="210" height="50" as="geometry" />
        </mxCell>
        <mxCell id="ulUya1o2ABFd1QOtWXsq-19" value="" style="rounded=0;whiteSpace=wrap;html=1;fontSize=19;" parent="1" vertex="1">
          <mxGeometry x="490" y="550" width="84" height="30" as="geometry" />
        </mxCell>
        <mxCell id="ulUya1o2ABFd1QOtWXsq-20" value="Datos Clínicos:" style="text;html=1;strokeColor=none;fillColor=none;align=left;verticalAlign=middle;whiteSpace=wrap;rounded=0;fontSize=19;fontStyle=2" parent="1" vertex="1">
          <mxGeometry x="230" y="380" width="200" height="30" as="geometry" />
        </mxCell>
        <mxCell id="ulUya1o2ABFd1QOtWXsq-21" value="Datos Personales:" style="text;html=1;strokeColor=none;fillColor=none;align=left;verticalAlign=middle;whiteSpace=wrap;rounded=0;fontSize=19;fontStyle=2" parent="1" vertex="1">
          <mxGeometry x="230" y="90" width="200" height="30" as="geometry" />
        </mxCell>
        <mxCell id="ulUya1o2ABFd1QOtWXsq-28" value="" style="shape=image;verticalLabelPosition=bottom;labelBackgroundColor=default;verticalAlign=top;aspect=fixed;imageAspect=0;image=https://miro.medium.com/max/1200/1*E9rJyc0GUM9-wNFBntTBCQ.jpeg;" parent="1" vertex="1">
          <mxGeometry x="530" y="50" width="180" height="56.77" as="geometry" />
        </mxCell>
        <mxCell id="ulUya1o2ABFd1QOtWXsq-29" value="Versión 1" style="shape=callout;whiteSpace=wrap;html=1;perimeter=calloutPerimeter;fontSize=19;position2=1;size=80;position=0.5;base=30;fillColor=#fff2cc;strokeColor=#d6b656;fontStyle=2" parent="1" vertex="1">
          <mxGeometry x="40" y="60" width="160" height="140" as="geometry" />
        </mxCell>
        <mxCell id="-O8hfMaqrkdol92MkCAT-1" value="Load" style="rounded=1;whiteSpace=wrap;html=1;fillColor=#f8cecc;strokeColor=#b85450;" vertex="1" parent="1">
          <mxGeometry x="454" y="610" width="120" height="30" as="geometry" />
        </mxCell>
        <mxCell id="Twb7DY42tRL_peV7YNTH-1" value="&lt;h1&gt;Versión 1 (Simple)&lt;/h1&gt;&lt;p&gt;- Para que el formulario sea simple inicialmente, todos los sistemas tendrán el mismo número de órganos y todos los órganos tendrán el mismo número de células&lt;/p&gt;" style="text;html=1;strokeColor=none;fillColor=none;spacing=5;spacingTop=-20;whiteSpace=wrap;overflow=hidden;rounded=0;" vertex="1" parent="1">
          <mxGeometry x="190" y="-132" width="440" height="120" as="geometry" />
        </mxCell>
        <mxCell id="Twb7DY42tRL_peV7YNTH-2" value="" style="whiteSpace=wrap;html=1;fontSize=19;" vertex="1" parent="1">
          <mxGeometry x="990" y="30" width="463" height="3061" as="geometry" />
        </mxCell>
        <mxCell id="Twb7DY42tRL_peV7YNTH-3" value="Nombre:&amp;nbsp;" style="text;html=1;strokeColor=none;fillColor=none;align=center;verticalAlign=middle;whiteSpace=wrap;rounded=0;fontSize=19;" vertex="1" parent="1">
          <mxGeometry x="1029" y="130" width="90" height="30" as="geometry" />
        </mxCell>
        <mxCell id="Twb7DY42tRL_peV7YNTH-4" value="Apellidos:" style="text;html=1;strokeColor=none;fillColor=none;align=center;verticalAlign=middle;whiteSpace=wrap;rounded=0;fontSize=19;" vertex="1" parent="1">
          <mxGeometry x="1030" y="170" width="90" height="30" as="geometry" />
        </mxCell>
        <mxCell id="Twb7DY42tRL_peV7YNTH-5" value="" style="rounded=0;whiteSpace=wrap;html=1;fontSize=19;" vertex="1" parent="1">
          <mxGeometry x="1214" y="130" width="160" height="30" as="geometry" />
        </mxCell>
        <mxCell id="Twb7DY42tRL_peV7YNTH-6" value="" style="rounded=0;whiteSpace=wrap;html=1;fontSize=19;" vertex="1" parent="1">
          <mxGeometry x="1214" y="170" width="160" height="30" as="geometry" />
        </mxCell>
        <mxCell id="Twb7DY42tRL_peV7YNTH-7" value="DNI:" style="text;html=1;strokeColor=none;fillColor=none;align=center;verticalAlign=middle;whiteSpace=wrap;rounded=0;fontSize=19;" vertex="1" parent="1">
          <mxGeometry x="1007" y="210" width="90" height="30" as="geometry" />
        </mxCell>
        <mxCell id="Twb7DY42tRL_peV7YNTH-8" value="" style="rounded=0;whiteSpace=wrap;html=1;fontSize=19;" vertex="1" parent="1">
          <mxGeometry x="1214" y="210" width="160" height="30" as="geometry" />
        </mxCell>
        <mxCell id="Twb7DY42tRL_peV7YNTH-9" value="Fecha Nacimiento:" style="text;html=1;strokeColor=none;fillColor=none;align=center;verticalAlign=middle;whiteSpace=wrap;rounded=0;fontSize=19;" vertex="1" parent="1">
          <mxGeometry x="1027" y="250" width="170" height="30" as="geometry" />
        </mxCell>
        <mxCell id="Twb7DY42tRL_peV7YNTH-10" value="" style="rounded=0;whiteSpace=wrap;html=1;fontSize=19;" vertex="1" parent="1">
          <mxGeometry x="1214" y="250" width="160" height="30" as="geometry" />
        </mxCell>
        <mxCell id="Twb7DY42tRL_peV7YNTH-11" value="Edad:" style="text;html=1;strokeColor=none;fillColor=none;align=left;verticalAlign=middle;whiteSpace=wrap;rounded=0;fontSize=19;" vertex="1" parent="1">
          <mxGeometry x="1030" y="290" width="170" height="30" as="geometry" />
        </mxCell>
        <mxCell id="Twb7DY42tRL_peV7YNTH-12" value="" style="rounded=0;whiteSpace=wrap;html=1;fontSize=19;" vertex="1" parent="1">
          <mxGeometry x="1214" y="290" width="160" height="30" as="geometry" />
        </mxCell>
        <mxCell id="Twb7DY42tRL_peV7YNTH-13" value="Se autocalcula" style="shape=callout;whiteSpace=wrap;html=1;perimeter=calloutPerimeter;fontSize=19;position2=0;base=34;size=35;position=0.39;" vertex="1" parent="1">
          <mxGeometry x="1410" y="220" width="170" height="85" as="geometry" />
        </mxCell>
        <mxCell id="Twb7DY42tRL_peV7YNTH-14" value="Número de Sistemas:" style="text;html=1;strokeColor=none;fillColor=none;align=left;verticalAlign=middle;whiteSpace=wrap;rounded=0;fontSize=14;" vertex="1" parent="1">
          <mxGeometry x="1033" y="433" width="200" height="30" as="geometry" />
        </mxCell>
        <mxCell id="Twb7DY42tRL_peV7YNTH-15" value="" style="rounded=0;whiteSpace=wrap;html=1;fontSize=19;" vertex="1" parent="1">
          <mxGeometry x="1376" y="439" width="30" height="18" as="geometry" />
        </mxCell>
        <mxCell id="Twb7DY42tRL_peV7YNTH-16" value="Número de Órganos:" style="text;html=1;strokeColor=none;fillColor=none;align=left;verticalAlign=middle;whiteSpace=wrap;rounded=0;fontSize=14;" vertex="1" parent="1">
          <mxGeometry x="1065" y="523" width="200" height="30" as="geometry" />
        </mxCell>
        <mxCell id="Twb7DY42tRL_peV7YNTH-17" value="" style="rounded=0;whiteSpace=wrap;html=1;fontSize=19;" vertex="1" parent="1">
          <mxGeometry x="1377" y="522" width="29" height="18" as="geometry" />
        </mxCell>
        <mxCell id="Twb7DY42tRL_peV7YNTH-18" value="Nombre Órgano:" style="text;html=1;strokeColor=none;fillColor=none;align=left;verticalAlign=middle;whiteSpace=wrap;rounded=0;fontSize=14;" vertex="1" parent="1">
          <mxGeometry x="1101" y="556.5" width="113" height="29" as="geometry" />
        </mxCell>
        <mxCell id="Twb7DY42tRL_peV7YNTH-19" value="" style="rounded=0;whiteSpace=wrap;html=1;fontSize=19;" vertex="1" parent="1">
          <mxGeometry x="1289" y="562" width="117" height="18" as="geometry" />
        </mxCell>
        <mxCell id="Twb7DY42tRL_peV7YNTH-20" value="Datos Clínicos:" style="text;html=1;strokeColor=none;fillColor=none;align=left;verticalAlign=middle;whiteSpace=wrap;rounded=0;fontSize=19;fontStyle=2" vertex="1" parent="1">
          <mxGeometry x="1030" y="380" width="200" height="30" as="geometry" />
        </mxCell>
        <mxCell id="Twb7DY42tRL_peV7YNTH-21" value="Datos Personales:" style="text;html=1;strokeColor=none;fillColor=none;align=left;verticalAlign=middle;whiteSpace=wrap;rounded=0;fontSize=19;fontStyle=2" vertex="1" parent="1">
          <mxGeometry x="1030" y="90" width="200" height="30" as="geometry" />
        </mxCell>
        <mxCell id="Twb7DY42tRL_peV7YNTH-22" value="" style="shape=image;verticalLabelPosition=bottom;labelBackgroundColor=default;verticalAlign=top;aspect=fixed;imageAspect=0;image=https://miro.medium.com/max/1200/1*E9rJyc0GUM9-wNFBntTBCQ.jpeg;" vertex="1" parent="1">
          <mxGeometry x="1330" y="50" width="180" height="56.77" as="geometry" />
        </mxCell>
        <mxCell id="Twb7DY42tRL_peV7YNTH-23" value="Versión 2" style="shape=callout;whiteSpace=wrap;html=1;perimeter=calloutPerimeter;fontSize=19;position2=1;size=80;position=0.5;base=30;fillColor=#fff2cc;strokeColor=#d6b656;fontStyle=2" vertex="1" parent="1">
          <mxGeometry x="840" y="60" width="160" height="140" as="geometry" />
        </mxCell>
        <mxCell id="Twb7DY42tRL_peV7YNTH-24" value="Load" style="rounded=1;whiteSpace=wrap;html=1;fillColor=#f8cecc;strokeColor=#b85450;" vertex="1" parent="1">
          <mxGeometry x="1278" y="3024" width="120" height="30" as="geometry" />
        </mxCell>
        <mxCell id="Twb7DY42tRL_peV7YNTH-25" value="&lt;h1&gt;Versión 2 (Compleja a nivel formulario)&lt;/h1&gt;&lt;p&gt;- Formulario más complejo dinámico, cada sistema activa un subformulario para rellenar los órganos que a su vez activa un subformulario para agregar sus células&lt;/p&gt;" style="text;html=1;strokeColor=none;fillColor=none;spacing=5;spacingTop=-20;whiteSpace=wrap;overflow=hidden;rounded=0;" vertex="1" parent="1">
          <mxGeometry x="990" y="-132" width="466.5" height="120" as="geometry" />
        </mxCell>
        <mxCell id="Twb7DY42tRL_peV7YNTH-26" value="Nombre Sistema:" style="text;html=1;strokeColor=none;fillColor=none;align=left;verticalAlign=middle;whiteSpace=wrap;rounded=0;fontSize=14;" vertex="1" parent="1">
          <mxGeometry x="1065" y="471" width="200" height="30" as="geometry" />
        </mxCell>
        <mxCell id="Twb7DY42tRL_peV7YNTH-27" value="" style="rounded=0;whiteSpace=wrap;html=1;fontSize=19;" vertex="1" parent="1">
          <mxGeometry x="1288" y="472" width="118" height="18" as="geometry" />
        </mxCell>
        <mxCell id="Twb7DY42tRL_peV7YNTH-28" value="Tipo:" style="text;html=1;strokeColor=none;fillColor=none;align=left;verticalAlign=middle;whiteSpace=wrap;rounded=0;fontSize=14;" vertex="1" parent="1">
          <mxGeometry x="1065" y="486" width="210" height="50" as="geometry" />
        </mxCell>
        <mxCell id="Twb7DY42tRL_peV7YNTH-29" value="" style="rounded=0;whiteSpace=wrap;html=1;fontSize=19;" vertex="1" parent="1">
          <mxGeometry x="1289" y="497" width="117" height="18" as="geometry" />
        </mxCell>
        <mxCell id="Twb7DY42tRL_peV7YNTH-31" value="Nombre tipo célular:&amp;nbsp;" style="text;html=1;strokeColor=none;fillColor=none;align=left;verticalAlign=middle;whiteSpace=wrap;rounded=0;fontSize=14;" vertex="1" parent="1">
          <mxGeometry x="1127" y="618" width="142" height="27" as="geometry" />
        </mxCell>
        <mxCell id="Twb7DY42tRL_peV7YNTH-32" value="" style="rounded=0;whiteSpace=wrap;html=1;fontSize=19;" vertex="1" parent="1">
          <mxGeometry x="1288" y="624" width="118" height="15" as="geometry" />
        </mxCell>
        <mxCell id="Twb7DY42tRL_peV7YNTH-34" value="Tipos de células" style="text;html=1;strokeColor=none;fillColor=none;align=left;verticalAlign=middle;whiteSpace=wrap;rounded=0;fontSize=14;" vertex="1" parent="1">
          <mxGeometry x="1101" y="588.5" width="166" height="23.5" as="geometry" />
        </mxCell>
        <mxCell id="Twb7DY42tRL_peV7YNTH-35" value="" style="rounded=0;whiteSpace=wrap;html=1;fontSize=19;" vertex="1" parent="1">
          <mxGeometry x="1377" y="589" width="29" height="15" as="geometry" />
        </mxCell>
        <mxCell id="Twb7DY42tRL_peV7YNTH-54" value="Cantidad a generar:" style="text;html=1;strokeColor=none;fillColor=none;align=left;verticalAlign=middle;whiteSpace=wrap;rounded=0;fontSize=14;" vertex="1" parent="1">
          <mxGeometry x="1127" y="649" width="142" height="27" as="geometry" />
        </mxCell>
        <mxCell id="Twb7DY42tRL_peV7YNTH-55" value="" style="rounded=0;whiteSpace=wrap;html=1;fontSize=19;" vertex="1" parent="1">
          <mxGeometry x="1379" y="655" width="27" height="15" as="geometry" />
        </mxCell>
        <mxCell id="Twb7DY42tRL_peV7YNTH-56" value="Nombre tipo célular:&amp;nbsp;" style="text;html=1;strokeColor=none;fillColor=none;align=left;verticalAlign=middle;whiteSpace=wrap;rounded=0;fontSize=14;" vertex="1" parent="1">
          <mxGeometry x="1127" y="681" width="142" height="27" as="geometry" />
        </mxCell>
        <mxCell id="Twb7DY42tRL_peV7YNTH-57" value="" style="rounded=0;whiteSpace=wrap;html=1;fontSize=19;" vertex="1" parent="1">
          <mxGeometry x="1288" y="687" width="118" height="15" as="geometry" />
        </mxCell>
        <mxCell id="Twb7DY42tRL_peV7YNTH-58" value="Cantidad a generar:" style="text;html=1;strokeColor=none;fillColor=none;align=left;verticalAlign=middle;whiteSpace=wrap;rounded=0;fontSize=14;" vertex="1" parent="1">
          <mxGeometry x="1127" y="712" width="142" height="27" as="geometry" />
        </mxCell>
        <mxCell id="Twb7DY42tRL_peV7YNTH-59" value="" style="rounded=0;whiteSpace=wrap;html=1;fontSize=19;" vertex="1" parent="1">
          <mxGeometry x="1379" y="718" width="27" height="15" as="geometry" />
        </mxCell>
        <mxCell id="Twb7DY42tRL_peV7YNTH-60" value="Nombre tipo célular:&amp;nbsp;" style="text;html=1;strokeColor=none;fillColor=none;align=left;verticalAlign=middle;whiteSpace=wrap;rounded=0;fontSize=14;" vertex="1" parent="1">
          <mxGeometry x="1127" y="752.5" width="142" height="27" as="geometry" />
        </mxCell>
        <mxCell id="Twb7DY42tRL_peV7YNTH-61" value="" style="rounded=0;whiteSpace=wrap;html=1;fontSize=19;" vertex="1" parent="1">
          <mxGeometry x="1288" y="758.5" width="118" height="15" as="geometry" />
        </mxCell>
        <mxCell id="Twb7DY42tRL_peV7YNTH-62" value="Cantidad a generar:" style="text;html=1;strokeColor=none;fillColor=none;align=left;verticalAlign=middle;whiteSpace=wrap;rounded=0;fontSize=14;" vertex="1" parent="1">
          <mxGeometry x="1127" y="783.5" width="142" height="27" as="geometry" />
        </mxCell>
        <mxCell id="Twb7DY42tRL_peV7YNTH-63" value="" style="rounded=0;whiteSpace=wrap;html=1;fontSize=19;" vertex="1" parent="1">
          <mxGeometry x="1379" y="789.5" width="27" height="15" as="geometry" />
        </mxCell>
        <mxCell id="Twb7DY42tRL_peV7YNTH-64" value="---- * ----" style="text;html=1;strokeColor=none;fillColor=none;align=center;verticalAlign=middle;whiteSpace=wrap;rounded=0;fontSize=14;" vertex="1" parent="1">
          <mxGeometry x="1218" y="810.5" width="60" height="30" as="geometry" />
        </mxCell>
        <mxCell id="Twb7DY42tRL_peV7YNTH-65" value="" style="rounded=0;whiteSpace=wrap;html=1;fontSize=19;" vertex="1" parent="1">
          <mxGeometry x="1289" y="840.5" width="117" height="18" as="geometry" />
        </mxCell>
        <mxCell id="Twb7DY42tRL_peV7YNTH-66" value="Nombre tipo célular:&amp;nbsp;" style="text;html=1;strokeColor=none;fillColor=none;align=left;verticalAlign=middle;whiteSpace=wrap;rounded=0;fontSize=14;" vertex="1" parent="1">
          <mxGeometry x="1127" y="896.5" width="142" height="27" as="geometry" />
        </mxCell>
        <mxCell id="Twb7DY42tRL_peV7YNTH-67" value="" style="rounded=0;whiteSpace=wrap;html=1;fontSize=19;" vertex="1" parent="1">
          <mxGeometry x="1288" y="902.5" width="118" height="15" as="geometry" />
        </mxCell>
        <mxCell id="Twb7DY42tRL_peV7YNTH-68" value="Tipos de células" style="text;html=1;strokeColor=none;fillColor=none;align=left;verticalAlign=middle;whiteSpace=wrap;rounded=0;fontSize=14;" vertex="1" parent="1">
          <mxGeometry x="1101" y="867" width="166" height="23.5" as="geometry" />
        </mxCell>
        <mxCell id="Twb7DY42tRL_peV7YNTH-69" value="" style="rounded=0;whiteSpace=wrap;html=1;fontSize=19;" vertex="1" parent="1">
          <mxGeometry x="1377" y="867.5" width="29" height="15" as="geometry" />
        </mxCell>
        <mxCell id="Twb7DY42tRL_peV7YNTH-70" value="Cantidad a generar:" style="text;html=1;strokeColor=none;fillColor=none;align=left;verticalAlign=middle;whiteSpace=wrap;rounded=0;fontSize=14;" vertex="1" parent="1">
          <mxGeometry x="1127" y="927.5" width="142" height="27" as="geometry" />
        </mxCell>
        <mxCell id="Twb7DY42tRL_peV7YNTH-71" value="" style="rounded=0;whiteSpace=wrap;html=1;fontSize=19;" vertex="1" parent="1">
          <mxGeometry x="1379" y="933.5" width="27" height="15" as="geometry" />
        </mxCell>
        <mxCell id="Twb7DY42tRL_peV7YNTH-72" value="Nombre tipo célular:&amp;nbsp;" style="text;html=1;strokeColor=none;fillColor=none;align=left;verticalAlign=middle;whiteSpace=wrap;rounded=0;fontSize=14;" vertex="1" parent="1">
          <mxGeometry x="1127" y="959.5" width="142" height="27" as="geometry" />
        </mxCell>
        <mxCell id="Twb7DY42tRL_peV7YNTH-73" value="" style="rounded=0;whiteSpace=wrap;html=1;fontSize=19;" vertex="1" parent="1">
          <mxGeometry x="1288" y="965.5" width="118" height="15" as="geometry" />
        </mxCell>
        <mxCell id="Twb7DY42tRL_peV7YNTH-74" value="Cantidad a generar:" style="text;html=1;strokeColor=none;fillColor=none;align=left;verticalAlign=middle;whiteSpace=wrap;rounded=0;fontSize=14;" vertex="1" parent="1">
          <mxGeometry x="1127" y="990.5" width="142" height="27" as="geometry" />
        </mxCell>
        <mxCell id="Twb7DY42tRL_peV7YNTH-75" value="" style="rounded=0;whiteSpace=wrap;html=1;fontSize=19;" vertex="1" parent="1">
          <mxGeometry x="1379" y="996.5" width="27" height="15" as="geometry" />
        </mxCell>
        <mxCell id="Twb7DY42tRL_peV7YNTH-76" value="Nombre tipo célular:&amp;nbsp;" style="text;html=1;strokeColor=none;fillColor=none;align=left;verticalAlign=middle;whiteSpace=wrap;rounded=0;fontSize=14;" vertex="1" parent="1">
          <mxGeometry x="1127" y="1031" width="142" height="27" as="geometry" />
        </mxCell>
        <mxCell id="Twb7DY42tRL_peV7YNTH-77" value="" style="rounded=0;whiteSpace=wrap;html=1;fontSize=19;" vertex="1" parent="1">
          <mxGeometry x="1288" y="1037" width="118" height="15" as="geometry" />
        </mxCell>
        <mxCell id="Twb7DY42tRL_peV7YNTH-78" value="Cantidad a generar:" style="text;html=1;strokeColor=none;fillColor=none;align=left;verticalAlign=middle;whiteSpace=wrap;rounded=0;fontSize=14;" vertex="1" parent="1">
          <mxGeometry x="1127" y="1062" width="142" height="27" as="geometry" />
        </mxCell>
        <mxCell id="Twb7DY42tRL_peV7YNTH-79" value="" style="rounded=0;whiteSpace=wrap;html=1;fontSize=19;" vertex="1" parent="1">
          <mxGeometry x="1379" y="1068" width="27" height="15" as="geometry" />
        </mxCell>
        <mxCell id="Twb7DY42tRL_peV7YNTH-80" value="---- * ----" style="text;html=1;strokeColor=none;fillColor=none;align=center;verticalAlign=middle;whiteSpace=wrap;rounded=0;fontSize=14;" vertex="1" parent="1">
          <mxGeometry x="1218" y="1089" width="60" height="30" as="geometry" />
        </mxCell>
        <mxCell id="Twb7DY42tRL_peV7YNTH-84" value="Nombre Órgano:" style="text;html=1;strokeColor=none;fillColor=none;align=left;verticalAlign=middle;whiteSpace=wrap;rounded=0;fontSize=14;" vertex="1" parent="1">
          <mxGeometry x="1090" y="1137" width="113" height="29" as="geometry" />
        </mxCell>
        <mxCell id="Twb7DY42tRL_peV7YNTH-85" value="" style="rounded=0;whiteSpace=wrap;html=1;fontSize=19;" vertex="1" parent="1">
          <mxGeometry x="1278" y="1142.5" width="117" height="18" as="geometry" />
        </mxCell>
        <mxCell id="Twb7DY42tRL_peV7YNTH-86" value="Nombre tipo célular:&amp;nbsp;" style="text;html=1;strokeColor=none;fillColor=none;align=left;verticalAlign=middle;whiteSpace=wrap;rounded=0;fontSize=14;" vertex="1" parent="1">
          <mxGeometry x="1116" y="1198.5" width="142" height="27" as="geometry" />
        </mxCell>
        <mxCell id="Twb7DY42tRL_peV7YNTH-87" value="" style="rounded=0;whiteSpace=wrap;html=1;fontSize=19;" vertex="1" parent="1">
          <mxGeometry x="1277" y="1204.5" width="118" height="15" as="geometry" />
        </mxCell>
        <mxCell id="Twb7DY42tRL_peV7YNTH-88" value="Tipos de células" style="text;html=1;strokeColor=none;fillColor=none;align=left;verticalAlign=middle;whiteSpace=wrap;rounded=0;fontSize=14;" vertex="1" parent="1">
          <mxGeometry x="1090" y="1169" width="166" height="23.5" as="geometry" />
        </mxCell>
        <mxCell id="Twb7DY42tRL_peV7YNTH-89" value="" style="rounded=0;whiteSpace=wrap;html=1;fontSize=19;" vertex="1" parent="1">
          <mxGeometry x="1366" y="1169.5" width="29" height="15" as="geometry" />
        </mxCell>
        <mxCell id="Twb7DY42tRL_peV7YNTH-90" value="Cantidad a generar:" style="text;html=1;strokeColor=none;fillColor=none;align=left;verticalAlign=middle;whiteSpace=wrap;rounded=0;fontSize=14;" vertex="1" parent="1">
          <mxGeometry x="1116" y="1229.5" width="142" height="27" as="geometry" />
        </mxCell>
        <mxCell id="Twb7DY42tRL_peV7YNTH-91" value="" style="rounded=0;whiteSpace=wrap;html=1;fontSize=19;" vertex="1" parent="1">
          <mxGeometry x="1368" y="1235.5" width="27" height="15" as="geometry" />
        </mxCell>
        <mxCell id="Twb7DY42tRL_peV7YNTH-92" value="Nombre tipo célular:&amp;nbsp;" style="text;html=1;strokeColor=none;fillColor=none;align=left;verticalAlign=middle;whiteSpace=wrap;rounded=0;fontSize=14;" vertex="1" parent="1">
          <mxGeometry x="1116" y="1261.5" width="142" height="27" as="geometry" />
        </mxCell>
        <mxCell id="Twb7DY42tRL_peV7YNTH-93" value="" style="rounded=0;whiteSpace=wrap;html=1;fontSize=19;" vertex="1" parent="1">
          <mxGeometry x="1277" y="1267.5" width="118" height="15" as="geometry" />
        </mxCell>
        <mxCell id="Twb7DY42tRL_peV7YNTH-94" value="Cantidad a generar:" style="text;html=1;strokeColor=none;fillColor=none;align=left;verticalAlign=middle;whiteSpace=wrap;rounded=0;fontSize=14;" vertex="1" parent="1">
          <mxGeometry x="1116" y="1292.5" width="142" height="27" as="geometry" />
        </mxCell>
        <mxCell id="Twb7DY42tRL_peV7YNTH-95" value="" style="rounded=0;whiteSpace=wrap;html=1;fontSize=19;" vertex="1" parent="1">
          <mxGeometry x="1368" y="1298.5" width="27" height="15" as="geometry" />
        </mxCell>
        <mxCell id="Twb7DY42tRL_peV7YNTH-96" value="Nombre tipo célular:&amp;nbsp;" style="text;html=1;strokeColor=none;fillColor=none;align=left;verticalAlign=middle;whiteSpace=wrap;rounded=0;fontSize=14;" vertex="1" parent="1">
          <mxGeometry x="1116" y="1333" width="142" height="27" as="geometry" />
        </mxCell>
        <mxCell id="Twb7DY42tRL_peV7YNTH-97" value="" style="rounded=0;whiteSpace=wrap;html=1;fontSize=19;" vertex="1" parent="1">
          <mxGeometry x="1277" y="1339" width="118" height="15" as="geometry" />
        </mxCell>
        <mxCell id="Twb7DY42tRL_peV7YNTH-98" value="Cantidad a generar:" style="text;html=1;strokeColor=none;fillColor=none;align=left;verticalAlign=middle;whiteSpace=wrap;rounded=0;fontSize=14;" vertex="1" parent="1">
          <mxGeometry x="1116" y="1364" width="142" height="27" as="geometry" />
        </mxCell>
        <mxCell id="Twb7DY42tRL_peV7YNTH-99" value="" style="rounded=0;whiteSpace=wrap;html=1;fontSize=19;" vertex="1" parent="1">
          <mxGeometry x="1368" y="1370" width="27" height="15" as="geometry" />
        </mxCell>
        <mxCell id="Twb7DY42tRL_peV7YNTH-101" value="" style="rounded=0;whiteSpace=wrap;html=1;fontSize=19;" vertex="1" parent="1">
          <mxGeometry x="1278" y="1421" width="117" height="18" as="geometry" />
        </mxCell>
        <mxCell id="Twb7DY42tRL_peV7YNTH-102" value="Nombre tipo célular:&amp;nbsp;" style="text;html=1;strokeColor=none;fillColor=none;align=left;verticalAlign=middle;whiteSpace=wrap;rounded=0;fontSize=14;" vertex="1" parent="1">
          <mxGeometry x="1116" y="1477" width="142" height="27" as="geometry" />
        </mxCell>
        <mxCell id="Twb7DY42tRL_peV7YNTH-103" value="" style="rounded=0;whiteSpace=wrap;html=1;fontSize=19;" vertex="1" parent="1">
          <mxGeometry x="1277" y="1483" width="118" height="15" as="geometry" />
        </mxCell>
        <mxCell id="Twb7DY42tRL_peV7YNTH-104" value="Tipos de células" style="text;html=1;strokeColor=none;fillColor=none;align=left;verticalAlign=middle;whiteSpace=wrap;rounded=0;fontSize=14;" vertex="1" parent="1">
          <mxGeometry x="1097" y="1448" width="166" height="23.5" as="geometry" />
        </mxCell>
        <mxCell id="Twb7DY42tRL_peV7YNTH-105" value="" style="rounded=0;whiteSpace=wrap;html=1;fontSize=19;" vertex="1" parent="1">
          <mxGeometry x="1366" y="1448" width="29" height="15" as="geometry" />
        </mxCell>
        <mxCell id="Twb7DY42tRL_peV7YNTH-106" value="Cantidad a generar:" style="text;html=1;strokeColor=none;fillColor=none;align=left;verticalAlign=middle;whiteSpace=wrap;rounded=0;fontSize=14;" vertex="1" parent="1">
          <mxGeometry x="1116" y="1508" width="142" height="27" as="geometry" />
        </mxCell>
        <mxCell id="Twb7DY42tRL_peV7YNTH-107" value="" style="rounded=0;whiteSpace=wrap;html=1;fontSize=19;" vertex="1" parent="1">
          <mxGeometry x="1368" y="1514" width="27" height="15" as="geometry" />
        </mxCell>
        <mxCell id="Twb7DY42tRL_peV7YNTH-108" value="Nombre tipo célular:&amp;nbsp;" style="text;html=1;strokeColor=none;fillColor=none;align=left;verticalAlign=middle;whiteSpace=wrap;rounded=0;fontSize=14;" vertex="1" parent="1">
          <mxGeometry x="1116" y="1540" width="142" height="27" as="geometry" />
        </mxCell>
        <mxCell id="Twb7DY42tRL_peV7YNTH-109" value="" style="rounded=0;whiteSpace=wrap;html=1;fontSize=19;" vertex="1" parent="1">
          <mxGeometry x="1277" y="1546" width="118" height="15" as="geometry" />
        </mxCell>
        <mxCell id="Twb7DY42tRL_peV7YNTH-110" value="Cantidad a generar:" style="text;html=1;strokeColor=none;fillColor=none;align=left;verticalAlign=middle;whiteSpace=wrap;rounded=0;fontSize=14;" vertex="1" parent="1">
          <mxGeometry x="1116" y="1571" width="142" height="27" as="geometry" />
        </mxCell>
        <mxCell id="Twb7DY42tRL_peV7YNTH-111" value="" style="rounded=0;whiteSpace=wrap;html=1;fontSize=19;" vertex="1" parent="1">
          <mxGeometry x="1368" y="1577" width="27" height="15" as="geometry" />
        </mxCell>
        <mxCell id="Twb7DY42tRL_peV7YNTH-112" value="Nombre tipo célular:&amp;nbsp;" style="text;html=1;strokeColor=none;fillColor=none;align=left;verticalAlign=middle;whiteSpace=wrap;rounded=0;fontSize=14;" vertex="1" parent="1">
          <mxGeometry x="1116" y="1611.5" width="142" height="27" as="geometry" />
        </mxCell>
        <mxCell id="Twb7DY42tRL_peV7YNTH-113" value="" style="rounded=0;whiteSpace=wrap;html=1;fontSize=19;" vertex="1" parent="1">
          <mxGeometry x="1277" y="1617.5" width="118" height="15" as="geometry" />
        </mxCell>
        <mxCell id="Twb7DY42tRL_peV7YNTH-114" value="Cantidad a generar:" style="text;html=1;strokeColor=none;fillColor=none;align=left;verticalAlign=middle;whiteSpace=wrap;rounded=0;fontSize=14;" vertex="1" parent="1">
          <mxGeometry x="1116" y="1642.5" width="142" height="27" as="geometry" />
        </mxCell>
        <mxCell id="Twb7DY42tRL_peV7YNTH-115" value="" style="rounded=0;whiteSpace=wrap;html=1;fontSize=19;" vertex="1" parent="1">
          <mxGeometry x="1368" y="1648.5" width="27" height="15" as="geometry" />
        </mxCell>
        <mxCell id="Twb7DY42tRL_peV7YNTH-116" value="---- * n tipos celulares ----" style="text;html=1;strokeColor=none;fillColor=none;align=center;verticalAlign=middle;whiteSpace=wrap;rounded=0;fontSize=14;fontStyle=2" vertex="1" parent="1">
          <mxGeometry x="1153.5" y="1674" width="167" height="30" as="geometry" />
        </mxCell>
        <mxCell id="Twb7DY42tRL_peV7YNTH-117" value="Número de Órganos:" style="text;html=1;strokeColor=none;fillColor=none;align=left;verticalAlign=middle;whiteSpace=wrap;rounded=0;fontSize=14;" vertex="1" parent="1">
          <mxGeometry x="1054" y="1780" width="200" height="30" as="geometry" />
        </mxCell>
        <mxCell id="Twb7DY42tRL_peV7YNTH-118" value="" style="rounded=0;whiteSpace=wrap;html=1;fontSize=19;" vertex="1" parent="1">
          <mxGeometry x="1366" y="1779" width="29" height="18" as="geometry" />
        </mxCell>
        <mxCell id="Twb7DY42tRL_peV7YNTH-119" value="Nombre Órgano:" style="text;html=1;strokeColor=none;fillColor=none;align=left;verticalAlign=middle;whiteSpace=wrap;rounded=0;fontSize=14;" vertex="1" parent="1">
          <mxGeometry x="1090" y="1813.5" width="113" height="29" as="geometry" />
        </mxCell>
        <mxCell id="Twb7DY42tRL_peV7YNTH-120" value="" style="rounded=0;whiteSpace=wrap;html=1;fontSize=19;" vertex="1" parent="1">
          <mxGeometry x="1278" y="1819" width="117" height="18" as="geometry" />
        </mxCell>
        <mxCell id="Twb7DY42tRL_peV7YNTH-121" value="Nombre Sistema:" style="text;html=1;strokeColor=none;fillColor=none;align=left;verticalAlign=middle;whiteSpace=wrap;rounded=0;fontSize=14;" vertex="1" parent="1">
          <mxGeometry x="1054" y="1728" width="200" height="30" as="geometry" />
        </mxCell>
        <mxCell id="Twb7DY42tRL_peV7YNTH-122" value="" style="rounded=0;whiteSpace=wrap;html=1;fontSize=19;" vertex="1" parent="1">
          <mxGeometry x="1277" y="1729" width="118" height="18" as="geometry" />
        </mxCell>
        <mxCell id="Twb7DY42tRL_peV7YNTH-123" value="Tipo:" style="text;html=1;strokeColor=none;fillColor=none;align=left;verticalAlign=middle;whiteSpace=wrap;rounded=0;fontSize=14;" vertex="1" parent="1">
          <mxGeometry x="1054" y="1743" width="210" height="50" as="geometry" />
        </mxCell>
        <mxCell id="Twb7DY42tRL_peV7YNTH-124" value="" style="rounded=0;whiteSpace=wrap;html=1;fontSize=19;" vertex="1" parent="1">
          <mxGeometry x="1278" y="1754" width="117" height="18" as="geometry" />
        </mxCell>
        <mxCell id="Twb7DY42tRL_peV7YNTH-125" value="Nombre tipo célular:&amp;nbsp;" style="text;html=1;strokeColor=none;fillColor=none;align=left;verticalAlign=middle;whiteSpace=wrap;rounded=0;fontSize=14;" vertex="1" parent="1">
          <mxGeometry x="1116" y="1875" width="142" height="27" as="geometry" />
        </mxCell>
        <mxCell id="Twb7DY42tRL_peV7YNTH-126" value="" style="rounded=0;whiteSpace=wrap;html=1;fontSize=19;" vertex="1" parent="1">
          <mxGeometry x="1277" y="1881" width="118" height="15" as="geometry" />
        </mxCell>
        <mxCell id="Twb7DY42tRL_peV7YNTH-127" value="Tipos de células" style="text;html=1;strokeColor=none;fillColor=none;align=left;verticalAlign=middle;whiteSpace=wrap;rounded=0;fontSize=14;" vertex="1" parent="1">
          <mxGeometry x="1090" y="1845.5" width="166" height="23.5" as="geometry" />
        </mxCell>
        <mxCell id="Twb7DY42tRL_peV7YNTH-128" value="" style="rounded=0;whiteSpace=wrap;html=1;fontSize=19;" vertex="1" parent="1">
          <mxGeometry x="1366" y="1846" width="29" height="15" as="geometry" />
        </mxCell>
        <mxCell id="Twb7DY42tRL_peV7YNTH-129" value="Cantidad a generar:" style="text;html=1;strokeColor=none;fillColor=none;align=left;verticalAlign=middle;whiteSpace=wrap;rounded=0;fontSize=14;" vertex="1" parent="1">
          <mxGeometry x="1116" y="1906" width="142" height="27" as="geometry" />
        </mxCell>
        <mxCell id="Twb7DY42tRL_peV7YNTH-130" value="" style="rounded=0;whiteSpace=wrap;html=1;fontSize=19;" vertex="1" parent="1">
          <mxGeometry x="1368" y="1912" width="27" height="15" as="geometry" />
        </mxCell>
        <mxCell id="Twb7DY42tRL_peV7YNTH-131" value="Nombre tipo célular:&amp;nbsp;" style="text;html=1;strokeColor=none;fillColor=none;align=left;verticalAlign=middle;whiteSpace=wrap;rounded=0;fontSize=14;" vertex="1" parent="1">
          <mxGeometry x="1116" y="1938" width="142" height="27" as="geometry" />
        </mxCell>
        <mxCell id="Twb7DY42tRL_peV7YNTH-132" value="" style="rounded=0;whiteSpace=wrap;html=1;fontSize=19;" vertex="1" parent="1">
          <mxGeometry x="1277" y="1944" width="118" height="15" as="geometry" />
        </mxCell>
        <mxCell id="Twb7DY42tRL_peV7YNTH-133" value="Cantidad a generar:" style="text;html=1;strokeColor=none;fillColor=none;align=left;verticalAlign=middle;whiteSpace=wrap;rounded=0;fontSize=14;" vertex="1" parent="1">
          <mxGeometry x="1116" y="1969" width="142" height="27" as="geometry" />
        </mxCell>
        <mxCell id="Twb7DY42tRL_peV7YNTH-134" value="" style="rounded=0;whiteSpace=wrap;html=1;fontSize=19;" vertex="1" parent="1">
          <mxGeometry x="1368" y="1975" width="27" height="15" as="geometry" />
        </mxCell>
        <mxCell id="Twb7DY42tRL_peV7YNTH-135" value="Nombre tipo célular:&amp;nbsp;" style="text;html=1;strokeColor=none;fillColor=none;align=left;verticalAlign=middle;whiteSpace=wrap;rounded=0;fontSize=14;" vertex="1" parent="1">
          <mxGeometry x="1116" y="2009.5" width="142" height="27" as="geometry" />
        </mxCell>
        <mxCell id="Twb7DY42tRL_peV7YNTH-136" value="" style="rounded=0;whiteSpace=wrap;html=1;fontSize=19;" vertex="1" parent="1">
          <mxGeometry x="1277" y="2015.5" width="118" height="15" as="geometry" />
        </mxCell>
        <mxCell id="Twb7DY42tRL_peV7YNTH-137" value="Cantidad a generar:" style="text;html=1;strokeColor=none;fillColor=none;align=left;verticalAlign=middle;whiteSpace=wrap;rounded=0;fontSize=14;" vertex="1" parent="1">
          <mxGeometry x="1116" y="2040.5" width="142" height="27" as="geometry" />
        </mxCell>
        <mxCell id="Twb7DY42tRL_peV7YNTH-138" value="" style="rounded=0;whiteSpace=wrap;html=1;fontSize=19;" vertex="1" parent="1">
          <mxGeometry x="1368" y="2046.5" width="27" height="15" as="geometry" />
        </mxCell>
        <mxCell id="Twb7DY42tRL_peV7YNTH-140" value="" style="rounded=0;whiteSpace=wrap;html=1;fontSize=19;" vertex="1" parent="1">
          <mxGeometry x="1278" y="2097.5" width="117" height="18" as="geometry" />
        </mxCell>
        <mxCell id="Twb7DY42tRL_peV7YNTH-141" value="Nombre tipo célular:&amp;nbsp;" style="text;html=1;strokeColor=none;fillColor=none;align=left;verticalAlign=middle;whiteSpace=wrap;rounded=0;fontSize=14;" vertex="1" parent="1">
          <mxGeometry x="1116" y="2153.5" width="142" height="27" as="geometry" />
        </mxCell>
        <mxCell id="Twb7DY42tRL_peV7YNTH-142" value="" style="rounded=0;whiteSpace=wrap;html=1;fontSize=19;" vertex="1" parent="1">
          <mxGeometry x="1277" y="2159.5" width="118" height="15" as="geometry" />
        </mxCell>
        <mxCell id="Twb7DY42tRL_peV7YNTH-143" value="Tipos de células" style="text;html=1;strokeColor=none;fillColor=none;align=left;verticalAlign=middle;whiteSpace=wrap;rounded=0;fontSize=14;" vertex="1" parent="1">
          <mxGeometry x="1090" y="2124" width="166" height="23.5" as="geometry" />
        </mxCell>
        <mxCell id="Twb7DY42tRL_peV7YNTH-144" value="" style="rounded=0;whiteSpace=wrap;html=1;fontSize=19;" vertex="1" parent="1">
          <mxGeometry x="1366" y="2124.5" width="29" height="15" as="geometry" />
        </mxCell>
        <mxCell id="Twb7DY42tRL_peV7YNTH-145" value="Cantidad a generar:" style="text;html=1;strokeColor=none;fillColor=none;align=left;verticalAlign=middle;whiteSpace=wrap;rounded=0;fontSize=14;" vertex="1" parent="1">
          <mxGeometry x="1116" y="2184.5" width="142" height="27" as="geometry" />
        </mxCell>
        <mxCell id="Twb7DY42tRL_peV7YNTH-146" value="" style="rounded=0;whiteSpace=wrap;html=1;fontSize=19;" vertex="1" parent="1">
          <mxGeometry x="1368" y="2190.5" width="27" height="15" as="geometry" />
        </mxCell>
        <mxCell id="Twb7DY42tRL_peV7YNTH-147" value="Nombre tipo célular:&amp;nbsp;" style="text;html=1;strokeColor=none;fillColor=none;align=left;verticalAlign=middle;whiteSpace=wrap;rounded=0;fontSize=14;" vertex="1" parent="1">
          <mxGeometry x="1116" y="2216.5" width="142" height="27" as="geometry" />
        </mxCell>
        <mxCell id="Twb7DY42tRL_peV7YNTH-148" value="" style="rounded=0;whiteSpace=wrap;html=1;fontSize=19;" vertex="1" parent="1">
          <mxGeometry x="1277" y="2222.5" width="118" height="15" as="geometry" />
        </mxCell>
        <mxCell id="Twb7DY42tRL_peV7YNTH-149" value="Cantidad a generar:" style="text;html=1;strokeColor=none;fillColor=none;align=left;verticalAlign=middle;whiteSpace=wrap;rounded=0;fontSize=14;" vertex="1" parent="1">
          <mxGeometry x="1116" y="2247.5" width="142" height="27" as="geometry" />
        </mxCell>
        <mxCell id="Twb7DY42tRL_peV7YNTH-150" value="" style="rounded=0;whiteSpace=wrap;html=1;fontSize=19;" vertex="1" parent="1">
          <mxGeometry x="1368" y="2253.5" width="27" height="15" as="geometry" />
        </mxCell>
        <mxCell id="Twb7DY42tRL_peV7YNTH-151" value="Nombre tipo célular:&amp;nbsp;" style="text;html=1;strokeColor=none;fillColor=none;align=left;verticalAlign=middle;whiteSpace=wrap;rounded=0;fontSize=14;" vertex="1" parent="1">
          <mxGeometry x="1116" y="2288" width="142" height="27" as="geometry" />
        </mxCell>
        <mxCell id="Twb7DY42tRL_peV7YNTH-152" value="" style="rounded=0;whiteSpace=wrap;html=1;fontSize=19;" vertex="1" parent="1">
          <mxGeometry x="1277" y="2294" width="118" height="15" as="geometry" />
        </mxCell>
        <mxCell id="Twb7DY42tRL_peV7YNTH-153" value="Cantidad a generar:" style="text;html=1;strokeColor=none;fillColor=none;align=left;verticalAlign=middle;whiteSpace=wrap;rounded=0;fontSize=14;" vertex="1" parent="1">
          <mxGeometry x="1116" y="2319" width="142" height="27" as="geometry" />
        </mxCell>
        <mxCell id="Twb7DY42tRL_peV7YNTH-154" value="" style="rounded=0;whiteSpace=wrap;html=1;fontSize=19;" vertex="1" parent="1">
          <mxGeometry x="1368" y="2325" width="27" height="15" as="geometry" />
        </mxCell>
        <mxCell id="Twb7DY42tRL_peV7YNTH-155" value="---- * n tipos celulares ----" style="text;html=1;strokeColor=none;fillColor=none;align=center;verticalAlign=middle;whiteSpace=wrap;rounded=0;fontSize=14;fontStyle=2" vertex="1" parent="1">
          <mxGeometry x="1128" y="2352" width="187" height="30" as="geometry" />
        </mxCell>
        <mxCell id="Twb7DY42tRL_peV7YNTH-157" value="Nombre Órgano:" style="text;html=1;strokeColor=none;fillColor=none;align=left;verticalAlign=middle;whiteSpace=wrap;rounded=0;fontSize=14;" vertex="1" parent="1">
          <mxGeometry x="1090" y="2395" width="113" height="29" as="geometry" />
        </mxCell>
        <mxCell id="Twb7DY42tRL_peV7YNTH-158" value="" style="rounded=0;whiteSpace=wrap;html=1;fontSize=19;" vertex="1" parent="1">
          <mxGeometry x="1278" y="2400.5" width="117" height="18" as="geometry" />
        </mxCell>
        <mxCell id="Twb7DY42tRL_peV7YNTH-159" value="Nombre tipo célular:&amp;nbsp;" style="text;html=1;strokeColor=none;fillColor=none;align=left;verticalAlign=middle;whiteSpace=wrap;rounded=0;fontSize=14;" vertex="1" parent="1">
          <mxGeometry x="1116" y="2456.5" width="142" height="27" as="geometry" />
        </mxCell>
        <mxCell id="Twb7DY42tRL_peV7YNTH-160" value="" style="rounded=0;whiteSpace=wrap;html=1;fontSize=19;" vertex="1" parent="1">
          <mxGeometry x="1277" y="2462.5" width="118" height="15" as="geometry" />
        </mxCell>
        <mxCell id="Twb7DY42tRL_peV7YNTH-161" value="Tipos de células" style="text;html=1;strokeColor=none;fillColor=none;align=left;verticalAlign=middle;whiteSpace=wrap;rounded=0;fontSize=14;" vertex="1" parent="1">
          <mxGeometry x="1090" y="2427" width="166" height="23.5" as="geometry" />
        </mxCell>
        <mxCell id="Twb7DY42tRL_peV7YNTH-162" value="" style="rounded=0;whiteSpace=wrap;html=1;fontSize=19;" vertex="1" parent="1">
          <mxGeometry x="1366" y="2427.5" width="29" height="15" as="geometry" />
        </mxCell>
        <mxCell id="Twb7DY42tRL_peV7YNTH-163" value="Cantidad a generar:" style="text;html=1;strokeColor=none;fillColor=none;align=left;verticalAlign=middle;whiteSpace=wrap;rounded=0;fontSize=14;" vertex="1" parent="1">
          <mxGeometry x="1116" y="2487.5" width="142" height="27" as="geometry" />
        </mxCell>
        <mxCell id="Twb7DY42tRL_peV7YNTH-164" value="" style="rounded=0;whiteSpace=wrap;html=1;fontSize=19;" vertex="1" parent="1">
          <mxGeometry x="1368" y="2493.5" width="27" height="15" as="geometry" />
        </mxCell>
        <mxCell id="Twb7DY42tRL_peV7YNTH-165" value="Nombre tipo célular:&amp;nbsp;" style="text;html=1;strokeColor=none;fillColor=none;align=left;verticalAlign=middle;whiteSpace=wrap;rounded=0;fontSize=14;" vertex="1" parent="1">
          <mxGeometry x="1116" y="2519.5" width="142" height="27" as="geometry" />
        </mxCell>
        <mxCell id="Twb7DY42tRL_peV7YNTH-166" value="" style="rounded=0;whiteSpace=wrap;html=1;fontSize=19;" vertex="1" parent="1">
          <mxGeometry x="1277" y="2525.5" width="118" height="15" as="geometry" />
        </mxCell>
        <mxCell id="Twb7DY42tRL_peV7YNTH-167" value="Cantidad a generar:" style="text;html=1;strokeColor=none;fillColor=none;align=left;verticalAlign=middle;whiteSpace=wrap;rounded=0;fontSize=14;" vertex="1" parent="1">
          <mxGeometry x="1116" y="2550.5" width="142" height="27" as="geometry" />
        </mxCell>
        <mxCell id="Twb7DY42tRL_peV7YNTH-168" value="" style="rounded=0;whiteSpace=wrap;html=1;fontSize=19;" vertex="1" parent="1">
          <mxGeometry x="1368" y="2556.5" width="27" height="15" as="geometry" />
        </mxCell>
        <mxCell id="Twb7DY42tRL_peV7YNTH-169" value="Nombre tipo célular:&amp;nbsp;" style="text;html=1;strokeColor=none;fillColor=none;align=left;verticalAlign=middle;whiteSpace=wrap;rounded=0;fontSize=14;" vertex="1" parent="1">
          <mxGeometry x="1116" y="2591" width="142" height="27" as="geometry" />
        </mxCell>
        <mxCell id="Twb7DY42tRL_peV7YNTH-170" value="" style="rounded=0;whiteSpace=wrap;html=1;fontSize=19;" vertex="1" parent="1">
          <mxGeometry x="1277" y="2597" width="118" height="15" as="geometry" />
        </mxCell>
        <mxCell id="Twb7DY42tRL_peV7YNTH-171" value="Cantidad a generar:" style="text;html=1;strokeColor=none;fillColor=none;align=left;verticalAlign=middle;whiteSpace=wrap;rounded=0;fontSize=14;" vertex="1" parent="1">
          <mxGeometry x="1116" y="2622" width="142" height="27" as="geometry" />
        </mxCell>
        <mxCell id="Twb7DY42tRL_peV7YNTH-172" value="" style="rounded=0;whiteSpace=wrap;html=1;fontSize=19;" vertex="1" parent="1">
          <mxGeometry x="1368" y="2628" width="27" height="15" as="geometry" />
        </mxCell>
        <mxCell id="Twb7DY42tRL_peV7YNTH-174" value="" style="rounded=0;whiteSpace=wrap;html=1;fontSize=19;" vertex="1" parent="1">
          <mxGeometry x="1278" y="2679" width="117" height="18" as="geometry" />
        </mxCell>
        <mxCell id="Twb7DY42tRL_peV7YNTH-175" value="Nombre tipo célular:&amp;nbsp;" style="text;html=1;strokeColor=none;fillColor=none;align=left;verticalAlign=middle;whiteSpace=wrap;rounded=0;fontSize=14;" vertex="1" parent="1">
          <mxGeometry x="1116" y="2735" width="142" height="27" as="geometry" />
        </mxCell>
        <mxCell id="Twb7DY42tRL_peV7YNTH-176" value="" style="rounded=0;whiteSpace=wrap;html=1;fontSize=19;" vertex="1" parent="1">
          <mxGeometry x="1277" y="2741" width="118" height="15" as="geometry" />
        </mxCell>
        <mxCell id="Twb7DY42tRL_peV7YNTH-177" value="Tipos de células" style="text;html=1;strokeColor=none;fillColor=none;align=left;verticalAlign=middle;whiteSpace=wrap;rounded=0;fontSize=14;" vertex="1" parent="1">
          <mxGeometry x="1090" y="2705.5" width="166" height="23.5" as="geometry" />
        </mxCell>
        <mxCell id="Twb7DY42tRL_peV7YNTH-178" value="" style="rounded=0;whiteSpace=wrap;html=1;fontSize=19;" vertex="1" parent="1">
          <mxGeometry x="1366" y="2706" width="29" height="15" as="geometry" />
        </mxCell>
        <mxCell id="Twb7DY42tRL_peV7YNTH-179" value="Cantidad a generar:" style="text;html=1;strokeColor=none;fillColor=none;align=left;verticalAlign=middle;whiteSpace=wrap;rounded=0;fontSize=14;" vertex="1" parent="1">
          <mxGeometry x="1116" y="2766" width="142" height="27" as="geometry" />
        </mxCell>
        <mxCell id="Twb7DY42tRL_peV7YNTH-180" value="" style="rounded=0;whiteSpace=wrap;html=1;fontSize=19;" vertex="1" parent="1">
          <mxGeometry x="1368" y="2772" width="27" height="15" as="geometry" />
        </mxCell>
        <mxCell id="Twb7DY42tRL_peV7YNTH-181" value="Nombre tipo célular:&amp;nbsp;" style="text;html=1;strokeColor=none;fillColor=none;align=left;verticalAlign=middle;whiteSpace=wrap;rounded=0;fontSize=14;" vertex="1" parent="1">
          <mxGeometry x="1116" y="2798" width="142" height="27" as="geometry" />
        </mxCell>
        <mxCell id="Twb7DY42tRL_peV7YNTH-182" value="" style="rounded=0;whiteSpace=wrap;html=1;fontSize=19;" vertex="1" parent="1">
          <mxGeometry x="1277" y="2804" width="118" height="15" as="geometry" />
        </mxCell>
        <mxCell id="Twb7DY42tRL_peV7YNTH-183" value="Cantidad a generar:" style="text;html=1;strokeColor=none;fillColor=none;align=left;verticalAlign=middle;whiteSpace=wrap;rounded=0;fontSize=14;" vertex="1" parent="1">
          <mxGeometry x="1116" y="2829" width="142" height="27" as="geometry" />
        </mxCell>
        <mxCell id="Twb7DY42tRL_peV7YNTH-184" value="" style="rounded=0;whiteSpace=wrap;html=1;fontSize=19;" vertex="1" parent="1">
          <mxGeometry x="1368" y="2835" width="27" height="15" as="geometry" />
        </mxCell>
        <mxCell id="Twb7DY42tRL_peV7YNTH-185" value="Nombre tipo célular:&amp;nbsp;" style="text;html=1;strokeColor=none;fillColor=none;align=left;verticalAlign=middle;whiteSpace=wrap;rounded=0;fontSize=14;" vertex="1" parent="1">
          <mxGeometry x="1116" y="2869.5" width="142" height="27" as="geometry" />
        </mxCell>
        <mxCell id="Twb7DY42tRL_peV7YNTH-186" value="" style="rounded=0;whiteSpace=wrap;html=1;fontSize=19;" vertex="1" parent="1">
          <mxGeometry x="1277" y="2875.5" width="118" height="15" as="geometry" />
        </mxCell>
        <mxCell id="Twb7DY42tRL_peV7YNTH-187" value="Cantidad a generar:" style="text;html=1;strokeColor=none;fillColor=none;align=left;verticalAlign=middle;whiteSpace=wrap;rounded=0;fontSize=14;" vertex="1" parent="1">
          <mxGeometry x="1116" y="2900.5" width="142" height="27" as="geometry" />
        </mxCell>
        <mxCell id="Twb7DY42tRL_peV7YNTH-188" value="" style="rounded=0;whiteSpace=wrap;html=1;fontSize=19;" vertex="1" parent="1">
          <mxGeometry x="1368" y="2906.5" width="27" height="15" as="geometry" />
        </mxCell>
        <mxCell id="Twb7DY42tRL_peV7YNTH-189" value="&lt;i&gt;---- * n órganos ----&lt;/i&gt;" style="text;html=1;strokeColor=none;fillColor=none;align=center;verticalAlign=middle;whiteSpace=wrap;rounded=0;fontSize=14;" vertex="1" parent="1">
          <mxGeometry x="1153.5" y="2944" width="136" height="30" as="geometry" />
        </mxCell>
        <mxCell id="Twb7DY42tRL_peV7YNTH-190" value="---- * n sistemas ----" style="text;html=1;strokeColor=none;fillColor=none;align=center;verticalAlign=middle;whiteSpace=wrap;rounded=0;fontSize=14;fontStyle=2" vertex="1" parent="1">
          <mxGeometry x="1106" y="2965" width="243" height="30" as="geometry" />
        </mxCell>
        <mxCell id="Twb7DY42tRL_peV7YNTH-191" value="&lt;i&gt;---- * n tipos celulares ----&lt;/i&gt;" style="text;html=1;strokeColor=none;fillColor=none;align=center;verticalAlign=middle;whiteSpace=wrap;rounded=0;fontSize=14;" vertex="1" parent="1">
          <mxGeometry x="1133" y="2643" width="187" height="30" as="geometry" />
        </mxCell>
        <mxCell id="Twb7DY42tRL_peV7YNTH-192" value="Nombre Órgano:" style="text;html=1;strokeColor=none;fillColor=none;align=left;verticalAlign=middle;whiteSpace=wrap;rounded=0;fontSize=14;" vertex="1" parent="1">
          <mxGeometry x="1090" y="2673.5" width="113" height="29" as="geometry" />
        </mxCell>
        <mxCell id="Twb7DY42tRL_peV7YNTH-193" value="---- * n tipos celulares ----" style="text;html=1;strokeColor=none;fillColor=none;align=center;verticalAlign=middle;whiteSpace=wrap;rounded=0;fontSize=14;fontStyle=2" vertex="1" parent="1">
          <mxGeometry x="1132.5" y="2061.5" width="187" height="30" as="geometry" />
        </mxCell>
        <mxCell id="Twb7DY42tRL_peV7YNTH-194" value="Nombre Órgano:" style="text;html=1;strokeColor=none;fillColor=none;align=left;verticalAlign=middle;whiteSpace=wrap;rounded=0;fontSize=14;" vertex="1" parent="1">
          <mxGeometry x="1090" y="2092" width="113" height="29" as="geometry" />
        </mxCell>
        <mxCell id="Twb7DY42tRL_peV7YNTH-195" value="Nombre Órgano:" style="text;html=1;strokeColor=none;fillColor=none;align=left;verticalAlign=middle;whiteSpace=wrap;rounded=0;fontSize=14;" vertex="1" parent="1">
          <mxGeometry x="1097" y="1419" width="113" height="29" as="geometry" />
        </mxCell>
        <mxCell id="Twb7DY42tRL_peV7YNTH-196" value="&lt;i&gt;---- * n tipos celulares ----&lt;/i&gt;" style="text;html=1;strokeColor=none;fillColor=none;align=center;verticalAlign=middle;whiteSpace=wrap;rounded=0;fontSize=14;" vertex="1" parent="1">
          <mxGeometry x="1143" y="2921.5" width="187" height="30" as="geometry" />
        </mxCell>
        <mxCell id="Twb7DY42tRL_peV7YNTH-197" value="" style="whiteSpace=wrap;html=1;fontSize=19;" vertex="1" parent="1">
          <mxGeometry x="-615" y="32" width="440" height="655" as="geometry" />
        </mxCell>
        <mxCell id="Twb7DY42tRL_peV7YNTH-198" value="Nombre:&amp;nbsp;" style="text;html=1;strokeColor=none;fillColor=none;align=center;verticalAlign=middle;whiteSpace=wrap;rounded=0;fontSize=19;" vertex="1" parent="1">
          <mxGeometry x="-576" y="132" width="90" height="30" as="geometry" />
        </mxCell>
        <mxCell id="Twb7DY42tRL_peV7YNTH-199" value="Apellidos:" style="text;html=1;strokeColor=none;fillColor=none;align=center;verticalAlign=middle;whiteSpace=wrap;rounded=0;fontSize=19;" vertex="1" parent="1">
          <mxGeometry x="-575" y="172" width="90" height="30" as="geometry" />
        </mxCell>
        <mxCell id="Twb7DY42tRL_peV7YNTH-200" value="" style="rounded=0;whiteSpace=wrap;html=1;fontSize=19;" vertex="1" parent="1">
          <mxGeometry x="-391" y="132" width="160" height="30" as="geometry" />
        </mxCell>
        <mxCell id="Twb7DY42tRL_peV7YNTH-201" value="" style="rounded=0;whiteSpace=wrap;html=1;fontSize=19;" vertex="1" parent="1">
          <mxGeometry x="-391" y="172" width="160" height="30" as="geometry" />
        </mxCell>
        <mxCell id="Twb7DY42tRL_peV7YNTH-202" value="DNI:" style="text;html=1;strokeColor=none;fillColor=none;align=center;verticalAlign=middle;whiteSpace=wrap;rounded=0;fontSize=19;" vertex="1" parent="1">
          <mxGeometry x="-598" y="212" width="90" height="30" as="geometry" />
        </mxCell>
        <mxCell id="Twb7DY42tRL_peV7YNTH-203" value="" style="rounded=0;whiteSpace=wrap;html=1;fontSize=19;" vertex="1" parent="1">
          <mxGeometry x="-391" y="212" width="160" height="30" as="geometry" />
        </mxCell>
        <mxCell id="Twb7DY42tRL_peV7YNTH-204" value="Fecha Nacimiento:" style="text;html=1;strokeColor=none;fillColor=none;align=center;verticalAlign=middle;whiteSpace=wrap;rounded=0;fontSize=19;" vertex="1" parent="1">
          <mxGeometry x="-578" y="252" width="170" height="30" as="geometry" />
        </mxCell>
        <mxCell id="Twb7DY42tRL_peV7YNTH-205" value="" style="rounded=0;whiteSpace=wrap;html=1;fontSize=19;" vertex="1" parent="1">
          <mxGeometry x="-391" y="252" width="160" height="30" as="geometry" />
        </mxCell>
        <mxCell id="Twb7DY42tRL_peV7YNTH-206" value="Edad:" style="text;html=1;strokeColor=none;fillColor=none;align=left;verticalAlign=middle;whiteSpace=wrap;rounded=0;fontSize=19;" vertex="1" parent="1">
          <mxGeometry x="-575" y="292" width="170" height="30" as="geometry" />
        </mxCell>
        <mxCell id="Twb7DY42tRL_peV7YNTH-207" value="" style="rounded=0;whiteSpace=wrap;html=1;fontSize=19;" vertex="1" parent="1">
          <mxGeometry x="-391" y="292" width="160" height="30" as="geometry" />
        </mxCell>
        <mxCell id="Twb7DY42tRL_peV7YNTH-208" value="Se autocalcula" style="shape=callout;whiteSpace=wrap;html=1;perimeter=calloutPerimeter;fontSize=19;position2=0;base=34;size=35;position=0.39;" vertex="1" parent="1">
          <mxGeometry x="-195" y="222" width="170" height="85" as="geometry" />
        </mxCell>
        <mxCell id="Twb7DY42tRL_peV7YNTH-209" value="AVRO Schema" style="text;html=1;strokeColor=none;fillColor=none;align=left;verticalAlign=middle;whiteSpace=wrap;rounded=0;fontSize=19;" vertex="1" parent="1">
          <mxGeometry x="-575" y="432" width="200" height="30" as="geometry" />
        </mxCell>
        <mxCell id="Twb7DY42tRL_peV7YNTH-210" value="{&lt;br&gt;...&lt;br&gt;}" style="rounded=0;whiteSpace=wrap;html=1;fontSize=19;" vertex="1" parent="1">
          <mxGeometry x="-575" y="469" width="347" height="129" as="geometry" />
        </mxCell>
        <mxCell id="Twb7DY42tRL_peV7YNTH-215" value="Datos Clínicos:" style="text;html=1;strokeColor=none;fillColor=none;align=left;verticalAlign=middle;whiteSpace=wrap;rounded=0;fontSize=19;fontStyle=2" vertex="1" parent="1">
          <mxGeometry x="-575" y="382" width="200" height="30" as="geometry" />
        </mxCell>
        <mxCell id="Twb7DY42tRL_peV7YNTH-216" value="Datos Personales:" style="text;html=1;strokeColor=none;fillColor=none;align=left;verticalAlign=middle;whiteSpace=wrap;rounded=0;fontSize=19;fontStyle=2" vertex="1" parent="1">
          <mxGeometry x="-575" y="92" width="200" height="30" as="geometry" />
        </mxCell>
        <mxCell id="Twb7DY42tRL_peV7YNTH-217" value="" style="shape=image;verticalLabelPosition=bottom;labelBackgroundColor=default;verticalAlign=top;aspect=fixed;imageAspect=0;image=https://miro.medium.com/max/1200/1*E9rJyc0GUM9-wNFBntTBCQ.jpeg;" vertex="1" parent="1">
          <mxGeometry x="-275" y="52" width="180" height="56.77" as="geometry" />
        </mxCell>
        <mxCell id="Twb7DY42tRL_peV7YNTH-218" value="Versión 0" style="shape=callout;whiteSpace=wrap;html=1;perimeter=calloutPerimeter;fontSize=19;position2=1;size=80;position=0.5;base=30;fillColor=#fff2cc;strokeColor=#d6b656;fontStyle=2" vertex="1" parent="1">
          <mxGeometry x="-765" y="62" width="160" height="140" as="geometry" />
        </mxCell>
        <mxCell id="Twb7DY42tRL_peV7YNTH-219" value="Load" style="rounded=1;whiteSpace=wrap;html=1;fillColor=#f8cecc;strokeColor=#b85450;" vertex="1" parent="1">
          <mxGeometry x="-348" y="625" width="120" height="30" as="geometry" />
        </mxCell>
        <mxCell id="Twb7DY42tRL_peV7YNTH-220" value="&lt;h1&gt;Versión 0 (AVRO)&lt;/h1&gt;&lt;p&gt;- Para que el formulario sea lo mas simple posible adaptamos la entrada a la máquina mediante lenguaje AVRO&lt;/p&gt;" style="text;html=1;strokeColor=none;fillColor=none;spacing=5;spacingTop=-20;whiteSpace=wrap;overflow=hidden;rounded=0;" vertex="1" parent="1">
          <mxGeometry x="-615" y="-119" width="440" height="120" as="geometry" />
        </mxCell>
      </root>
    </mxGraphModel>
  </diagram>
</mxfile>
